SplineFontDB: 1.0
FontName: Tuffy
FullName: Tuffy Regular
FamilyName: Tuffy
Weight: Regular
Copyright: Created by Thatcher Ulrich (http://tulrich.com) with FontForge 1.0 (http://fontforge.sf.net)\n\nThis font, including hint instructions, has been donated to the Public Domain.  Do whatever you want with it.\n
Comments: 2004-9-1: Created.
Version: 001.100
ItalicAngle: 0
UnderlinePosition: -100
UnderlineWidth: 50
Ascent: 1597
Descent: 451
NeedsXUIDChange: 1
XUID: [1021 745 1046372284 8037501]
FSType: 0
OS2Version: 0
OS2_WeightWidthSlopeOnly: 0
OS2_UseTypoMetrics: 0
CreationTime: 1166531129
ModificationTime: 1232331584
PfmFamily: 33
TTFWeight: 500
TTFWidth: 5
LineGap: 93
VLineGap: 0
Panose: 2 11 6 3 6 1 0 0 0 0
OS2TypoAscent: 0
OS2TypoAOffset: 1
OS2TypoDescent: 0
OS2TypoDOffset: 1
OS2TypoLinegap: 0
OS2WinAscent: 0
OS2WinAOffset: 1
OS2WinDescent: 0
OS2WinDOffset: 1
HheadAscent: 0
HheadAOffset: 1
HheadDescent: 0
HheadDOffset: 1
OS2SubXSize: 0
OS2SubYSize: 2
OS2SubXOff: -16560
OS2SubYOff: 0
OS2SupXSize: -25944
OS2SupYSize: -27176
OS2SupXOff: -16376
OS2SupYOff: 1
OS2StrikeYSize: 12312
OS2StrikeYPos: -16224
OS2Vendor: 'PfEd'
ScriptLang: 2
 1 latn 1 dflt 
 1 DFLT 1 dflt 
TtfTable: cvt  4
!$MDh
EndTtf
LangName: 1053 "" "" "MagerKursiv" 
LangName: 1034 "" "" "NormalCursiva" 
LangName: 1049 "" "" "+BB4EMQRLBEcEPQRLBDkEGgRDBEAEQQQ4BDIA" 
LangName: 1044 "" "" "VanligKursiv" 
LangName: 1040 "" "" "NormaleCursivo" 
LangName: 1038 "" "" "Norm+AOEA-lD+AVEA-lt" 
LangName: 1031 "" "" "StandardKursiv" 
LangName: 1036 "" "" "NormalItalique" 
LangName: 1043 "" "" "RegelmatigCursief" 
LangName: 1033 "" "" "" "" "" "" "" "" "" "Thatcher Ulrich" "" "http://tulrich.com+AAoA" "http://tulrich.com+AAoA" "Public Domain+AAoA" 
Encoding: Custom
UnicodeInterp: none
NameList: Adobe Glyph List
DisplaySize: -48
AntiAlias: 1
FitToEm: 1
WinInfo: 0 17 9
BeginPrivate: 7
BlueValues 27 [-32 2 1069 1101 1450 1491]
OtherBlues 0 
StdHW 4 [66]
StdVW 5 [70]

StemSnapH 6 [66] 

StemSnapV 6 [70] 


StartChar: exclam
Encoding: 1 33 1
Width: 421
Flags: HMW
Fore
281 440 m 1
 281 406 252 381 223 381 c 1
 191 382 164 406 164 440 c 1
 123 1389 l 1
 123 1442 170 1483 221 1483 c 1
 274 1483 322 1440 322 1391 c 1
 281 440 l 1
EndSplineSet
Refer: 14 46 N 1 0 0 1 0 0 2
EndChar
StartChar: quotedbl
Encoding: 2 34 2
Width: 690
Flags: HMW
Fore
442 1092 m 1
 422 1466 l 1
 422 1516 458 1542 494 1542 c 0
 495 1542 496 1542 498 1542 c 0
 530 1542 561 1524 569 1486 c 0
 571 1480 571 1473 571 1466 c 1
 551 1092 l 1
 549 1061 520 1044 496 1044 c 0
 473 1044 449 1056 444 1083 c 0
 443 1086 443 1089 442 1092 c 1
150 1092 m 1
 129 1466 l 1
 129 1516 165 1542 201 1542 c 0
 202 1542 203 1542 205 1542 c 0
 237 1542 268 1524 277 1486 c 0
 278 1480 279 1473 279 1466 c 1
 258 1092 l 1
 256 1061 227 1044 203 1044 c 0
 180 1044 156 1056 151 1083 c 0
 150 1086 150 1089 150 1092 c 1
EndSplineSet
EndChar
StartChar: numbersign
Encoding: 3 35 3
Width: 1589
Flags: HMW
Fore
969 547 m 0
 969 885 l 0
 627 885 l 0
 627 547 l 0
 969 547 l 0
1118 406 m 0
 1118 53 l 1
 969 53 l 1
 969 406 l 0
 627 406 l 0
 627 53 l 1
 477 53 l 1
 477 406 l 0
 129 406 l 1
 129 547 l 1
 477 547 l 0
 477 885 l 0
 129 885 l 1
 129 1024 l 1
 477 1024 l 0
 477 1403 l 1
 627 1403 l 1
 627 1024 l 0
 969 1024 l 0
 969 1403 l 1
 1118 1403 l 1
 1118 1024 l 0
 1479 1024 l 1
 1479 885 l 1
 1118 885 l 0
 1118 547 l 0
 1479 547 l 1
 1479 406 l 1
 1118 406 l 0
EndSplineSet
KernsSLIFO: 4 -55 0 0
EndChar
StartChar: dollar
Encoding: 4 36 4
Width: 1017
Flags: HMW
Back
434.176 1495.04 m 1
 581.632 1495.04 l 1
 581.632 -114.688 l 1
 434.176 -114.688 l 1
 434.176 1495.04 l 1
24.5762 266.24 m 1
 159.744 346.112 l 1
 249.856 206.848 321.538 112.64 507.906 112.64 c 1
 690.178 112.64 811.008 219.136 811.008 376.832 c 1
 811.008 565.248 632.037 623.215 454.656 671.744 c 0
 299.418 714.216 92.1602 780.288 83.9678 1034.24 c 0
 76.0439 1279.87 274.432 1413.12 507.904 1413.12 c 1
 747.521 1413.12 841.729 1306.62 935.934 1167.36 c 1
 811.008 1087.49 l 1
 751.616 1189.89 667.648 1271.81 507.904 1271.81 c 1
 354.304 1271.81 245.76 1198.08 245.76 1034.24 c 0
 245.76 843.776 419.396 838.961 565.246 782.336 c 0
 751.104 710.183 974.848 673.792 972.8 376.832 c 0
 971.078 126.982 778.24 -26.624 507.904 -28.6719 c 1
 284.672 -26.624 157.696 57.3438 24.5762 266.24 c 1
EndSplineSet
Fore
453 1537 m 1
 582 1537 l 1
 582 1411 l 1
 735 1399 848 1305 936 1168 c 1
 811 1088 l 1
 770 1165 690 1249 582 1264 c 1
 582 775 l 1
 771 703 973 659 973 383 c 0
 973 168 825 0 582 -26 c 1
 582 -155 l 1
 455 -155 l 1
 455 -26 l 1
 233 -8 135 94 25 266 c 1
 160 346 l 1
 230 237 299 133 455 117 c 1
 455 672 l 1
 252 721 84 813 84 1051 c 0
 84 1264 252 1397 453 1409 c 1
 453 1537 l 1
455 817 m 1
 455 1270 l 1
 334 1255 246 1174 246 1051 c 0
 246 895 334 848 455 817 c 1
582 630 m 1
 582 119 l 1
 727 143 811 242 811 383 c 0
 811 492 739 582 582 630 c 1
EndSplineSet
EndChar
StartChar: percent
Encoding: 5 37 5
Width: 1402
Flags: HMW
Fore
891 373 m 0
 891 359 892 346 895 334 c 0
 909 267 960 219 1032 219 c 0
 1112 219 1180 283 1180 373 c 0
 1180 383 1179 394 1176 404 c 0
 1162 470 1105 522 1032 522 c 0
 954 522 891 453 891 373 c 0
762 373 m 0
 762 522 883 643 1034 643 c 0
 1166 643 1277 551 1303 429 c 0
 1307 411 1309 392 1309 373 c 0
 1309 223 1186 104 1034 104 c 0
 902 104 794 194 768 316 c 0
 764 335 762 353 762 373 c 0
231 1077 m 0
 231 1064 233 1051 235 1039 c 0
 250 972 302 924 375 924 c 0
 455 924 522 987 522 1077 c 0
 522 1088 521 1098 519 1109 c 0
 505 1174 448 1227 375 1227 c 0
 297 1227 231 1157 231 1077 c 0
104 1077 m 0
 104 1227 225 1348 377 1348 c 0
 509 1348 619 1256 645 1133 c 0
 649 1115 651 1096 651 1077 c 0
 651 928 528 809 377 809 c 0
 245 809 136 899 110 1021 c 0
 106 1039 104 1058 104 1077 c 0
424 137 m 1
 274 137 l 1
 995 1319 l 0
 1139 1319 l 1
 424 137 l 1
EndSplineSet
EndChar
StartChar: ampersand
Encoding: 6 38 6
Width: 1241
Flags: HMW
Back
1026.05 251.904 m 13xd0
 870.4 299.008 l 21
 819.198 188.416 700.414 112.64 591.87 112.64 c 5
 413.696 112.64 260.096 229.376 260.096 423.936 c 4xd0
 260.096 624.64 428.585 731.136 587.776 731.136 c 6
 665.6 731.136 l 5
 665.6 856.064 l 5
 567.296 856.064 l 4
 442.368 856.064 327.68 962.561 327.68 1116.16 c 4
 327.68 1253.38 446.464 1357.82 569.344 1357.82 c 6
 575.488 1357.82 l 4
 686.08 1357.82 768 1294.34 808.958 1200.13 c 13
 946.176 1263.62 l 21
 876.544 1400.83 737.28 1497.09 569.344 1497.09 c 4
 368.64 1497.09 169.984 1343.49 169.984 1116.16 c 4xe0
 169.984 940.032 284.672 829.44 352.256 794.624 c 5
 256.739 765.747 102.4 622.592 102.4 423.936 c 4
 102.4 159.744 317.44 -28.6719 591.872 -28.6719 c 5
 747.521 -28.6719 948.224 71.6797 1026.05 251.904 c 13xd0
EndSplineSet
Fore
811 1200 m 17
 764 1292 702 1352 567 1352 c 1
 438 1352 330 1260 330 1120 c 0
 330 973 453 877 567 877 c 2
 668 877 l 1
 668 735 l 1
 571 735 l 2
 385 735 258 631 258 430 c 0
 258 227 414 113 561 113 c 0
 731 113 852 256 852 408 c 1
 657 408 l 1
 657 547 l 1
 1159 547 l 1
 1159 406 l 1
 1018 406 l 1
 1018 238 879 -29 561 -29 c 0
 319 -29 100 172 100 430 c 0
 100 655 264 791 365 813 c 1
 268 854 172 952 172 1120 c 0
 172 1309 326 1493 567 1493 c 0
 752 1493 883 1389 946 1266 c 9
 811 1200 l 17
EndSplineSet
EndChar
StartChar: quotesingle
Encoding: 7 39 7
Width: 382
Flags: HMW
Fore
150 1092 m 1
 129 1466 l 1
 129 1516 165 1542 201 1542 c 0
 202 1542 203 1542 205 1542 c 0
 237 1542 268 1524 277 1486 c 0
 278 1480 279 1473 279 1466 c 1
 258 1092 l 1
 256 1061 227 1044 203 1044 c 0
 180 1044 156 1056 151 1083 c 0
 150 1086 150 1089 150 1092 c 1
EndSplineSet
EndChar
StartChar: parenleft
Encoding: 8 40 8
Width: 548
Flags: HMW
Fore
279 -84 m 1
 138 132 41 422 41 739 c 0
 41 997 121 1303 279 1550 c 1
 457 1550 l 1
 272 1282 193 997 193 729 c 0
 193 426 311 128 457 -84 c 1
 279 -84 l 1
EndSplineSet
EndChar
StartChar: parenright
Encoding: 9 41 9
Width: 536
Flags: HMW
Fore
266 -84 m 1
 90 -84 l 1
 262 168 354 465 354 727 c 0
 354 1015 238 1333 90 1550 c 1
 266 1550 l 1
 400 1340 506 1032 506 727 c 0
 506 453 428 164 266 -84 c 1
EndSplineSet
EndChar
StartChar: asterisk
Encoding: 10 42 10
Width: 913
Flags: HMW
Fore
461.503 517.667 m 1
 349 294 l 2
 339.664 275.438 317.732 253.875 286.715 253.875 c 0
 274.21 253.875 260.229 257.38 245 266 c 0
 220.789 280.396 207.282 302.928 207.282 327.991 c 0
 207.282 341.229 211.05 355.174 219 369 c 2
 354.432 575.781 l 1
 109 562 l 2
 80 562 33 577 33 638 c 0
 33 681 63 712 109 712 c 2
 357.425 698.051 l 1
 221 906 l 2
 214.946 916.81 209.454 931.921 209.454 948.017 c 0
 209.454 969.146 218.918 991.972 249 1009 c 0
 261.942 1016.7 275.814 1020.53 289.255 1020.53 c 0
 314.242 1020.53 337.74 1007.28 351 981 c 2
 461.505 761.953 l 1
 571 979 l 2
 584.26 1005.28 607.758 1018.53 632.745 1018.53 c 0
 646.186 1018.53 660.058 1014.7 673 1007 c 0
 703.082 989.972 712.547 967.146 712.547 946.017 c 0
 712.547 929.921 707.054 914.81 701 904 c 2
 565.938 698.128 l 1
 813 712 l 2
 859 712 889 681 889 638 c 0
 889 577 842 562 813 562 c 2
 568.929 575.705 l 1
 703 371 l 2
 710.95 357.174 714.718 343.229 714.718 329.991 c 0
 714.718 304.928 701.211 282.396 677 268 c 0
 661.771 259.38 647.79 255.875 635.285 255.875 c 0
 604.268 255.875 582.336 277.438 573 296 c 2
 461.503 517.667 l 1
EndSplineSet
EndChar
StartChar: plus
Encoding: 11 43 11
Width: 894
Flags: HMW
Fore
78 711 m 1
 385 711 l 1
 385 1022 l 1
 526 1022 l 1
 526 711 l 1
 834 711 l 1
 834 569 l 1
 526 569 l 1
 526 258 l 1
 385 258 l 1
 385 569 l 1
 78 569 l 1
 78 711 l 1
EndSplineSet
EndChar
StartChar: comma
Encoding: 12 44 12
Width: 399
Flags: HMW
Fore
318 94 m 1
 318 -63 217 -186 195 -221 c 1
 139 -190 l 1
 160 -160 211 -84 211 -12 c 0
 159 -12 116 23 106 72 c 0
 104 79 103 87 103 94 c 0
 103 154 152 202 211 202 c 0
 263 202 306 165 316 117 c 0
 318 109 318 102 318 94 c 1
EndSplineSet
EndChar
StartChar: hyphen
Encoding: 13 45 13
Width: 866
Flags: HMW
Fore
109 705 m 1
 786 705 l 1
 786 563 l 1
 109 563 l 1
 109 705 l 1
EndSplineSet
EndChar
StartChar: period
Encoding: 14 46 14
Width: 405
Flags: HMW
Back
55.5117 138.778 m 4
 55.5117 215.382 117.684 277.556 194.288 277.556 c 4
 270.894 277.556 333.066 215.382 333.066 138.778 c 4
 333.066 62.1719 270.894 0 194.288 0 c 4
 117.684 0 55.5117 62.1719 55.5117 138.778 c 4
EndSplineSet
Fore
103 94 m 0
 103 154 152 202 211 202 c 0
 263 202 306 165 316 117 c 0
 318 109 318 102 318 94 c 0
 318 35 270 -13 211 -13 c 0
 159 -13 116 23 106 72 c 0
 104 79 103 87 103 94 c 0
EndSplineSet
EndChar
StartChar: slash
Encoding: 15 47 15
Width: 808
Flags: HMW
Fore
135 0 m 1
 -23 0 l 1
 694 1544 l 0
 852 1544 l 1
 135 0 l 1
EndSplineSet
KernsSLIFO: 15 -143 0 0
EndChar
StartChar: zero
Encoding: 16 48 16
Width: 1136
Flags: HMW
Fore
100 727 m 1
 100 1137 279 1493 582 1493 c 1
 811 1493 961 1288 1020 1011 c 0
 1039 922 1049 826 1049 727 c 1
 1049 319 877 -29 573 -29 c 1
 341 -29 187 175 128 454 c 0
 110 539 100 632 100 727 c 1
258 727 m 1
 258 644 266 555 284 472 c 0
 326 277 418 113 573 113 c 1
 797 113 891 449 891 727 c 1
 891 816 882 911 863 999 c 0
 823 1191 734 1352 582 1352 c 1
 360 1352 258 1008 258 727 c 1
EndSplineSet
EndChar
StartChar: one
Encoding: 17 49 17
Width: 1136
Flags: HMW
Fore
582 1206 m 1
 424 1206 l 1
 647 1456 l 1
 739 1456 l 1
 739 0 l 1
 582 0 l 1
 582 1206 l 1
EndSplineSet
EndChar
StartChar: two
Encoding: 18 50 18
Width: 1136
Flags: HMW
Back
111.81 1007.74 m 4
 111.81 1276.45 310.762 1494.53 555.898 1494.53 c 4
 801.036 1494.53 999.987 1276.45 999.987 1007.74 c 4
 999.987 739.031 801.036 520.95 555.898 520.95 c 4
 310.762 520.95 111.81 739.031 111.81 1007.74 c 4
338.125 1007.74 m 4
 338.125 1163.31 435.688 1289.56 555.898 1289.56 c 4
 676.11 1289.56 773.673 1163.31 773.673 1007.74 c 4
 773.673 852.173 676.11 725.914 555.898 725.914 c 4
 435.688 725.914 338.125 852.173 338.125 1007.74 c 4
EndSplineSet
Fore
262 1110 m 9
 123 1165 l 17
 174 1348 367 1495 569 1495 c 0
 780 1495 989 1360 989 1053 c 0
 989 772 689 610 592 541 c 0
 489 467 293 274 293 141 c 1
 1016 141 l 17
 1016 0 l 1
 109 0 l 1
 109 326 334 528 545 676 c 0
 652 751 836 850 836 1053 c 0
 836 1249 702 1354 569 1354 c 0
 442 1354 313 1272 262 1110 c 9
EndSplineSet
EndChar
StartChar: three
Encoding: 19 51 19
Width: 1126
Flags: HMW
Back
25.6201 1076.06 m 4
 25.6201 1321.2 224.571 1494.53 469.709 1494.53 c 4
 714.847 1494.53 913.797 1321.2 913.797 1076.06 c 4
 913.797 830.925 714.847 657.593 469.709 657.593 c 4
 224.571 657.593 25.6201 830.925 25.6201 1076.06 c 4
226.314 1076.06 m 4
 226.314 1210.41 335.355 1293.83 469.709 1293.83 c 4
 604.062 1293.83 713.104 1210.41 713.104 1076.06 c 4
 713.104 941.705 604.062 858.286 469.709 858.286 c 4
 335.355 858.286 226.314 941.705 226.314 1076.06 c 4
469.709 1076.06 m 29
23.4863 414.198 m 4
 23.4863 659.333 222.436 858.286 467.575 858.286 c 4
 712.71 858.286 911.661 659.333 911.661 414.198 c 4
 911.661 169.06 712.71 -29.8896 467.575 -29.8896 c 4
 222.438 -29.8896 23.4863 169.06 23.4863 414.198 c 4
224.181 414.198 m 4
 224.181 548.553 333.22 657.593 467.575 657.593 c 4
 601.928 657.593 710.968 548.553 710.968 414.198 c 4
 710.968 279.845 601.928 170.804 467.575 170.804 c 4
 333.22 170.804 224.181 279.845 224.181 414.198 c 4
467.575 414.198 m 29
EndSplineSet
Fore
113 252 m 9
 268 299 l 17
 319 188 438 113 547 113 c 1
 725 113 879 229 879 424 c 0
 879 625 710 731 551 731 c 2
 473 731 l 1
 473 856 l 1
 571 856 l 0
 696 856 811 963 811 1116 c 0
 811 1253 692 1358 569 1358 c 2
 563 1358 l 0
 453 1358 371 1294 330 1200 c 9
 193 1264 l 17
 262 1401 401 1497 569 1497 c 0
 770 1497 969 1343 969 1116 c 0
 969 940 854 829 786 795 c 1
 882 766 1036 623 1036 424 c 0
 1036 160 821 -29 547 -29 c 1
 391 -29 190 72 113 252 c 9
EndSplineSet
EndChar
StartChar: four
Encoding: 20 52 20
Width: 1136
Flags: HMW
Fore
864 1445 m 1
 864 537 l 9
 1053 537 l 17
 1053 397 l 1
 864 397 l 1
 864 0 l 1
 707 0 l 1
 707 397 l 1
 88 397 l 9
 694 1456 l 1
 707 1456 l 1
 864 1456 l 1
 864 1445 l 1
711 1221 m 1
 324 539 l 1
 711 539 l 1
 711 1221 l 1
EndSplineSet
EndChar
StartChar: five
Encoding: 21 53 21
Width: 1136
Flags: HMW
Back
224.181 1131.57 m 4
 224.181 1331.92 388.696 1494.53 591.405 1494.53 c 4
 794.116 1494.53 958.632 1331.92 958.632 1131.57 c 4
 958.632 931.22 794.116 768.614 591.405 768.614 c 4
 388.696 768.614 224.181 931.22 224.181 1131.57 c 4
145.182 414.198 m 4
 145.182 659.333 344.134 858.286 589.271 858.286 c 4
 834.408 858.286 1033.36 659.333 1033.36 414.198 c 4
 1033.36 169.06 834.408 -29.8896 589.271 -29.8896 c 4
 344.134 -29.8896 145.182 169.06 145.182 414.198 c 4
345.877 414.198 m 4
 345.877 548.553 454.918 657.593 589.271 657.593 c 4
 723.624 657.593 832.666 548.553 832.666 414.198 c 4
 832.666 279.845 723.624 170.804 589.271 170.804 c 4
 454.918 170.804 345.877 279.845 345.877 414.198 c 4
589.271 414.198 m 29
EndSplineSet
Fore
604 807 m 1
 444 807 375 735 344 711 c 1
 199 786 l 9
 293 1456 l 1
 965 1456 l 1
 965 1315 l 1
 424 1315 l 1
 358 887 l 1
 416 922 492 942 604 942 c 1
 821 942 989 802 1036 584 c 0
 1044 545 1049 503 1049 459 c 1
 1049 201 877 -29 598 -29 c 1
 367 -29 195 119 135 330 c 9
 291 358 l 17
 326 256 401 113 598 113 c 1
 774 113 893 254 893 461 c 1
 893 490 890 518 884 544 c 0
 852 697 733 807 604 807 c 1
EndSplineSet
EndChar
StartChar: six
Encoding: 22 54 22
Width: 1136
Flags: HMW
Back
199.348 1131.57 m 4
 199.348 1331.92 363.864 1494.53 566.573 1494.53 c 4
 769.284 1494.53 933.8 1331.92 933.8 1131.57 c 4
 933.8 931.22 769.284 768.614 566.573 768.614 c 4
 363.864 768.614 199.348 931.22 199.348 1131.57 c 4
120.35 414.198 m 4
 120.35 659.333 319.302 858.286 564.439 858.286 c 4
 809.576 858.286 1008.53 659.333 1008.53 414.198 c 4
 1008.53 169.06 809.576 -29.8896 564.439 -29.8896 c 4
 319.302 -29.8896 120.35 169.06 120.35 414.198 c 4
321.045 414.198 m 4
 321.045 548.553 430.086 657.593 564.439 657.593 c 4
 698.792 657.593 807.834 548.553 807.834 414.198 c 4
 807.834 279.845 698.792 170.804 564.439 170.804 c 4
 430.086 170.804 321.045 279.845 321.045 414.198 c 4
564.439 414.198 m 29
EndSplineSet
Fore
879 408 m 1
 879 429 876 450 872 471 c 0
 844 604 728 709 573 709 c 1
 395 709 279 561 279 412 c 1
 279 390 281 369 285 349 c 0
 314 212 436 121 575 121 c 1
 760 121 879 266 879 408 c 1
436 827 m 1
 481 846 514 858 573 858 c 0
 789 858 974 709 1018 502 c 0
 1025 472 1028 440 1028 408 c 1
 1028 201 850 -29 571 -29 c 1
 341 -29 178 137 138 323 c 0
 132 351 129 381 129 410 c 1
 129 614 250 784 297 870 c 1
 631 1454 l 9
 786 1454 l 17
 436 827 l 1
EndSplineSet
EndChar
StartChar: seven
Encoding: 23 55 23
Width: 1136
Flags: HMW
Fore
1079 1456 m 1
 524 0 l 1
 342 0 l 1
 858 1307 l 1
 111 1307 l 1
 111 1456 l 1
 1079 1456 l 1
EndSplineSet
EndChar
StartChar: eight
Encoding: 24 56 24
Width: 1136
Flags: HMW
Back
136.642 1076.06 m 4
 136.642 1321.2 335.594 1494.53 580.73 1494.53 c 4
 825.868 1494.53 1024.82 1321.2 1024.82 1076.06 c 4
 1024.82 830.925 825.868 657.593 580.73 657.593 c 4
 335.594 657.593 136.642 830.925 136.642 1076.06 c 4
337.336 1076.06 m 4
 337.336 1210.41 446.378 1293.83 580.73 1293.83 c 4
 715.084 1293.83 824.125 1210.41 824.125 1076.06 c 4
 824.125 941.705 715.084 858.286 580.73 858.286 c 4
 446.378 858.286 337.336 941.705 337.336 1076.06 c 4
580.73 1076.06 m 29
134.508 414.198 m 4
 134.508 659.333 333.46 858.286 578.597 858.286 c 4
 823.732 858.286 1022.68 659.333 1022.68 414.198 c 4
 1022.68 169.06 823.732 -29.8896 578.597 -29.8896 c 4
 333.46 -29.8896 134.508 169.06 134.508 414.198 c 4
335.202 414.198 m 4
 335.202 548.553 444.242 657.593 578.597 657.593 c 4
 712.95 657.593 821.989 548.553 821.989 414.198 c 4
 821.989 279.845 712.95 170.804 578.597 170.804 c 4
 444.242 170.804 335.202 279.845 335.202 414.198 c 4
578.597 414.198 m 29
EndSplineSet
Fore
582 113 m 0
 764 113 913 256 913 432 c 1
 913 455 911 477 907 498 c 0
 875 648 735 739 586 739 c 1
 406 739 262 627 262 432 c 0
 262 409 265 386 269 364 c 0
 301 216 432 113 582 113 c 0
332 1124 m 1
 332 1103 334 1084 338 1065 c 0
 362 949 460 881 586 881 c 1
 729 881 838 969 838 1124 c 1
 838 1143 836 1161 832 1178 c 0
 810 1282 723 1356 584 1356 c 1
 420 1356 332 1251 332 1124 c 1
584 1497 m 1
 790 1497 950 1375 987 1201 c 0
 993 1177 995 1151 995 1124 c 1
 995 930 870 844 807 807 c 1
 896 766 1029 673 1063 512 c 0
 1068 487 1071 461 1071 432 c 1
 1071 168 844 -29 582 -29 c 1
 353 -29 160 124 114 336 c 0
 108 367 104 399 104 432 c 1
 104 653 264 768 360 807 c 1
 297 844 210 907 183 1037 c 0
 177 1063 174 1092 174 1124 c 1
 174 1335 348 1497 584 1497 c 1
EndSplineSet
EndChar
StartChar: nine
Encoding: 25 57 25
Width: 1136
Flags: HMW
Back
241.089 1054.5 m 5
 241.089 925.477 341.351 811.358 484.653 811.358 c 5
 623.176 811.358 719.424 925.477 719.424 1043.11 c 5
 719.424 1190.22 608.229 1291.96 477.993 1291.96 c 5
 354.16 1291.96 241.089 1194.49 241.089 1054.5 c 5
737.784 716.073 m 5
 678.687 635.109 567.665 606.352 484.653 606.352 c 5
 200.438 606.352 34.5879 844.344 34.5879 1052.6 c 5
 34.5879 1299.11 232.465 1497.67 477.993 1497.67 c 4
 783.305 1497.67 945.572 1233.45 955.165 951.096 c 4
 957.44 884.068 953.269 811.487 943.432 720.511 c 5
EndSplineSet
Fore
293 1053 m 1
 293 1031 295 1010 300 989 c 0
 328 856 444 752 598 752 c 1
 776 752 893 899 893 1049 c 1
 893 1070 891 1091 886 1111 c 0
 857 1248 735 1341 596 1341 c 1
 412 1341 293 1194 293 1053 c 1
735 633 m 1
 690 614 657 602 598 602 c 0
 382 602 197 751 153 958 c 0
 147 988 143 1020 143 1053 c 1
 143 1260 322 1491 600 1491 c 1
 831 1491 994 1323 1033 1138 c 0
 1039 1109 1042 1080 1042 1051 c 1
 1042 846 922 676 874 590 c 1
 550 0 l 9
 382 0 l 17
 735 633 l 1
EndSplineSet
EndChar
StartChar: less
Encoding: 28 60 28
Width: 843
Flags: HMW
Fore
592 23 m 1
 84 635 l 1
 592 1235 l 1
 791 1235 l 1
 281 633 l 1
 791 23 l 1
 592 23 l 1
EndSplineSet
EndChar
StartChar: equal
Encoding: 29 61 29
Width: 907
Flags: HMW
Fore
66 500 m 1
 866 500 l 1
 866 358 l 1
 66 358 l 1
 66 500 l 1
66 866 m 1
 866 866 l 1
 866 725 l 1
 66 725 l 1
 66 866 l 1
EndSplineSet
EndChar
StartChar: greater
Encoding: 30 62 30
Width: 856
Flags: HMW
Fore
291 20 m 1
 92 20 l 1
 600 633 l 1
 92 1235 l 1
 291 1235 l 1
 797 635 l 1
 291 20 l 1
EndSplineSet
EndChar
StartChar: question
Encoding: 31 63 31
Width: 985
Flags: HMW
Back
264.745 1093.14 m 0
 264.745 1199.21 373.787 1289.56 508.14 1289.56 c 4
 642.494 1289.56 751.534 1199.21 751.534 1093.14 c 0
 751.534 987.072 642.494 900.987 508.14 900.987 c 0
 373.787 900.987 264.745 987.072 264.745 1093.14 c 0
51.2402 1093.14 m 0
 51.2402 1314.71 254.018 1494.53 503.869 1494.53 c 0
 753.72 1494.53 956.498 1314.71 956.498 1093.14 c 0
 956.498 871.573 753.72 691.753 503.869 691.753 c 0
 254.018 691.753 51.2402 871.573 51.2402 1093.14 c 0
EndSplineSet
Fore
573 501 m 1
 573 360 l 1
 416 360 l 1
 416 505 l 0
 416 692 544.88 759.48 647.984 852 c 0
 716.72 913.68 774 960 774 1094 c 0
 774 1264.45 656.949 1356 496 1356 c 0
 322 1356 203 1196 203 1085 c 1
 57 1110 l 1
 82 1327 262 1497 489 1497 c 0
 712.914 1497 932 1366.9 932 1098 c 0
 932 956 866.313 861.983 795.614 791 c 0
 692.924 687.896 573 668 573 501 c 1
EndSplineSet
Refer: 14 46 N 1 0 0 1 293 0 2
EndChar
StartChar: at
Encoding: 32 64 32
Width: 1624
Flags: HMW
Back
1095.49 730.855 m 4
 1095.49 823.845 1170.96 899.31 1263.94 899.31 c 4
 1356.93 899.31 1432.4 823.845 1432.4 730.855 c 4
 1432.4 637.868 1356.93 562.401 1263.94 562.401 c 4
 1170.96 562.401 1095.49 637.868 1095.49 730.855 c 4
969.309 730.184 m 0
 969.309 892.821 1101.3 1024.82 1263.94 1024.82 c 0
 1426.58 1024.82 1558.58 892.821 1558.58 730.184 c 0
 1558.58 567.544 1426.58 435.548 1263.94 435.548 c 0
 1101.3 435.548 969.309 567.544 969.309 730.184 c 0
581.585 730.654 m 0
 581.585 847.868 677.96 944.243 795.175 944.243 c 0
 912.388 944.243 1008.76 847.868 1008.76 730.654 c 0
 1008.76 613.439 912.388 517.064 795.175 517.064 c 0
 677.96 517.064 581.585 613.439 581.585 730.654 c 0
157.566 730.323 m 0
 157.566 1082.76 441.795 1366.99 794.235 1366.99 c 0
 1146.68 1366.99 1430.91 1082.76 1430.91 730.323 c 0
 1430.91 377.881 1146.68 93.6543 794.235 93.6543 c 0
 441.795 93.6543 157.566 377.881 157.566 730.323 c 0
29.8896 730.184 m 0
 29.8896 1152.92 371.497 1494.53 794.235 1494.53 c 0
 1216.97 1494.53 1558.58 1152.92 1558.58 730.184 c 0
 1558.58 307.445 1216.97 -34.1602 794.235 -34.1602 c 0
 371.497 -34.1602 29.8896 307.445 29.8896 730.184 c 0
452.629 730.184 m 0
 452.629 918.067 606.352 1071.79 794.235 1071.79 c 0
 982.118 1071.79 1135.84 918.067 1135.84 730.184 c 0
 1135.84 542.3 982.118 388.577 794.235 388.577 c 0
 606.352 388.577 452.629 542.3 452.629 730.184 c 0
EndSplineSet
Fore
1176 213 m 1
 1253 111 l 17
 1126 18 973 -35 805 -35 c 0
 436 -35 131 224 58 569 c 0
 47 622 41 676 41 731 c 0
 41 1153 381 1495 805 1495 c 0
 1177 1495 1483 1231 1551 913 c 0
 1560 870 1565 827 1565 782 c 0
 1565 573 1403 418 1284 418 c 0
 1210 418 1122 461 1069 518 c 1
 1010 438 911 389 805 389 c 0
 641 389 503 506 470 660 c 0
 465 683 463 707 463 731 c 0
 463 918 616 1071 805 1071 c 0
 967 1071 1090 951 1121 805 c 0
 1126 781 1128 756 1128 731 c 0
 1128 719 1130 706 1133 693 c 0
 1148 619 1208 547 1278 547 c 0
 1350 547 1436 655 1436 782 c 0
 1436 816 1432 850 1425 884 c 0
 1371 1138 1121 1368 805 1368 c 0
 446 1368 168 1071 168 727 c 0
 168 683 173 639 182 597 c 0
 242 314 493 92 805 92 c 0
 932 92 1079 145 1176 213 c 1
592 731 m 0
 592 715 594 699 597 684 c 0
 618 584 705 516 805 516 c 0
 928 516 1004 614 1004 731 c 0
 1004 745 1002 759 999 772 c 0
 979 866 894 946 805 946 c 0
 694 946 592 850 592 731 c 0
EndSplineSet
EndChar
StartChar: m
Encoding: 77 109 33
Width: 1533
Flags: HMW
Back
280.576 0 m 9
 129.024 0 l 1
 129.024 1073.15 l 1
 280.576 1073.15 l 1
 280.576 870.4 l 17
 335.872 980.992 387.072 1101.82 532.48 1101.82 c 0
 731.136 1101.82 854.014 983.04 854.014 657.408 c 1
 854.016 0 l 1
 702.464 0 l 0
 702.462 657.408 l 1
 702.462 876.544 667.648 964.608 532.482 964.608 c 0
 376.832 964.608 280.576 790.528 280.576 618.496 c 0
 280.576 0 l 9
143.36 1474.56 m 25
 143.36 -53.248 l 25
430.08 1466.37 m 25
 430.08 -61.4404 l 25
286.72 -69.6318 m 25
 286.72 1458.18 l 25
 286.72 -69.6318 l 25
573.44 1470.46 m 25
 573.44 -57.3438 l 25
716.8 1466.37 m 25
 716.8 -61.4404 l 25
860.16 -49.1523 m 25
 860.16 1478.66 l 25
 860.16 -49.1523 l 25
EndSplineSet
Fore
934 0 m 1
 622 0 l 0
 702 55 l 1
 702 547 l 1
 702 762 675 1065 499 1065 c 0
 324 1065 281 765 281 550 c 0
 281 65 l 1
 361 0 l 9
 49 0 l 1
 129 60 l 1
 129 1030 l 1
 49 1073 l 1
 281 1073 l 1
 281 891 l 17
 328 992 384 1102 542 1102 c 0
 705 1102 801 990 834 860 c 1
 867 990 966 1102 1119 1102 c 0
 1341 1102 1427 918 1427 653 c 1
 1427 57 l 1
 1507 0 l 1
 1196 0 l 0
 1276 55 l 1
 1276 543 l 1
 1276 759 1251 1058 1076 1058 c 0
 900 1058 854 765 854 549 c 0
 854 55 l 1
 934 0 l 1
EndSplineSet
EndChar
StartChar: n
Encoding: 78 110 34
Width: 1064
Flags: HMW
Back
280.576 0 m 13
 129.024 0 l 5
 129.024 1073.15 l 5
 280.576 1073.15 l 5
 280.576 892.928 l 21
 313.344 970.752 423.936 1101.82 552.96 1101.82 c 4
 755.516 1101.82 956.429 902.24 956.414 659.456 c 5
 956.416 0 l 5
 804.864 0 l 4
 804.864 661.504 l 6
 804.864 850.59 672.924 964.608 550.912 964.608 c 4
 407.552 964.608 280.574 806.912 280.574 618.496 c 4
 280.576 0 l 13
1003.52 -49.1523 m 25
 1003.52 1478.66 l 25
 1003.52 -49.1523 l 25
143.36 1474.56 m 25
 143.36 -53.248 l 25
430.08 1466.37 m 25
 430.08 -61.4404 l 25
286.72 -69.6318 m 25
 286.72 1458.18 l 25
 286.72 -69.6318 l 25
573.44 1470.46 m 25
 573.44 -57.3438 l 25
716.8 1466.37 m 25
 716.8 -61.4404 l 25
860.16 -49.1523 m 25
 860.16 1478.66 l 25
 860.16 -49.1523 l 25
EndSplineSet
Fore
361 0 m 9
 49 0 l 1
 129 70 l 1
 129 1030 l 1
 49 1073 l 1
 281 1073 l 1
 281 891.848 l 17
 315.977 1003.77 427.852 1101.85 585.687 1101.85 c 0
 800.157 1101.85 956 933.132 956 540.848 c 2
 956 60 l 1
 1036 0 l 1
 805 0 l 0
 805 55 l 1
 805 540.848 l 1
 805 773.848 732 1064.85 546 1064.85 c 4
 360 1064.85 281 767.848 281 539.848 c 0
 281 60 l 1
 361 0 l 9
EndSplineSet
EndChar
StartChar: o
Encoding: 79 111 35
Width: 1054
Flags: HMW
Back
1003.52 -49.1523 m 29
 1003.52 1478.66 l 29
 1003.52 -49.1523 l 29
143.36 1474.56 m 25
 143.36 -53.248 l 25
430.08 1466.37 m 25
 430.08 -61.4404 l 25
286.72 -69.6318 m 25
 286.72 1458.18 l 25
 286.72 -69.6318 l 25
573.44 1470.46 m 25
 573.44 -57.3438 l 25
716.8 1466.37 m 25
 716.8 -61.4404 l 25
860.16 -49.1523 m 25
 860.16 1478.66 l 25
 860.16 -49.1523 l 25
EndSplineSet
Fore
102 537 m 0
 102 852 252 1094 539 1094 c 0
 824 1094 975 849 975 537 c 0
 975 221 828 -29 539 -29 c 0
 252 -29 102 223 102 537 c 0
256 537 m 0
 256 304 336 6 539 6 c 4
 740 6 821 304 821 537 c 0
 821 768 740 1058 539 1058 c 0
 336 1058 256 768 256 537 c 0
EndSplineSet
KernsSLIFO: 44 -53 0 0
EndChar
StartChar: p
Encoding: 80 112 36
Width: 1044
Flags: HMW
Back
280.576 0 m 13
 129.024 0 l 5
 129.024 1073.15 l 5
 280.576 1073.15 l 5
 280.576 870.4 l 21
 335.872 980.992 438.272 1101.82 583.68 1101.82 c 4
 782.336 1101.82 956.414 983.04 956.414 657.408 c 5
 956.416 0 l 5
 804.864 0 l 4
 804.862 657.408 l 5
 804.862 876.544 718.848 964.608 583.682 964.608 c 4
 428.032 964.608 280.576 790.528 280.576 618.496 c 4
 280.576 0 l 13
143.36 1474.56 m 25
 143.36 -53.248 l 25
430.08 1466.37 m 25
 430.08 -61.4404 l 25
286.72 -69.6318 m 25
 286.72 1458.18 l 25
 286.72 -69.6318 l 25
573.44 1470.46 m 25
 573.44 -57.3438 l 25
716.8 1466.37 m 25
 716.8 -61.4404 l 25
860.16 -49.1523 m 25
 860.16 1478.66 l 25
 860.16 -49.1523 l 25
EndSplineSet
Fore
281 1073 m 9
 281 886 l 1
 328 996 408 1102 580 1102 c 0
 860 1102 975 828 975 539 c 0
 975 254.184 860.665 -29 578 -29 c 0
 404 -29 328 76 281 184 c 1
 281 -370 l 1
 281 -428 l 1
 49 -428 l 1
 129 -375 l 1
 129 1025 l 1
 49 1073 l 1
 281 1073 l 9
821 539 m 0
 821 816 700 1066 552 1066 c 0
 404 1066 276 812 276 537 c 0
 276 264 404 6 552 6 c 4
 700 6 821 264 821 539 c 0
EndSplineSet
EndChar
StartChar: q
Encoding: 81 113 37
Width: 1048
Flags: HMW
Back
262.144 538.624 m 4
 262.144 322.897 356.633 106.496 509.954 106.496 c 4
 624.643 106.496 806.912 253.952 806.912 538.624 c 4
 806.912 779.053 651.571 956.416 505.856 956.416 c 4
 366.592 956.416 262.144 772.096 262.144 538.624 c 4
802.816 161.792 m 5
 764.203 104.886 666.786 -28.6963 513.495 -28.6963 c 4
 512.317 -28.6963 511.138 -28.6875 509.95 -28.6719 c 5
 509.053 -28.6777 508.156 -28.6816 507.263 -28.6816 c 4
 237.511 -28.6816 108.544 279.279 108.544 542.72 c 4
 108.544 825.344 249.856 1093.63 505.856 1093.63 c 4
 638.976 1093.63 747.522 995.328 802.818 894.976 c 13
 802.816 1073.15 l 5
 954.368 1073.15 l 5
 954.368 -18.4316 l 6
 954.368 -290.816 751.616 -448.512 548.864 -448.512 c 4
 293.073 -448.512 150.618 -252.853 133.12 -108.544 c 5
 276.478 -108.544 l 21
 295.285 -229.32 422.126 -313.344 540.672 -313.344 c 4
 665.6 -313.344 802.816 -225.28 802.816 -32.7676 c 4
 802.816 161.792 l 5
143.36 1474.56 m 25
 143.36 -53.248 l 25
430.08 1466.37 m 25
 430.08 -61.4404 l 25
286.72 -69.6318 m 25
 286.72 1458.18 l 25
 286.72 -69.6318 l 25
573.44 1470.46 m 25
 573.44 -57.3438 l 25
716.8 1466.37 m 25
 716.8 -61.4404 l 25
860.16 -49.1523 m 25
 860.16 1478.66 l 25
 860.16 -49.1523 l 25
EndSplineSet
Fore
919 -199 m 2
 919 -279 947 -313 1037 -313 c 1
 1034 -350 l 1
 765 -350 l 1
 767 -205 l 2
 767 0 l 1
 767 184 l 17
 691.576 10.6854 584.429 -29 466 -29 c 0
 188 -29 73 256 73 539 c 0
 73 828 188 1102 468 1102 c 0
 640 1102 720 996 767 886 c 1
 767 1073 l 17
 999 1073 l 1
 919 1025 l 1
 919 0 l 1
 919 -199 l 2
227 539 m 0
 227 264 348 6 496 6 c 0
 644 6 772 264 772 537 c 0
 772 812 644 1066 496 1066 c 4
 348 1066 227 816 227 539 c 0
EndSplineSet
KernsSLIFO: 129 274 0 0
EndChar
StartChar: r
Encoding: 82 114 38
Width: 686
Flags: HMW
Back
143.36 1474.56 m 29
 143.36 -53.248 l 29
430.08 1466.37 m 29
 430.08 -61.4404 l 29
286.72 -69.6318 m 29
 286.72 1458.18 l 29
 286.72 -69.6318 l 29
573.44 1470.46 m 29
 573.44 -57.3438 l 29
716.8 1466.37 m 29
 716.8 -61.4404 l 29
860.16 -49.1523 m 29
 860.16 1478.66 l 29
 860.16 -49.1523 l 29
EndSplineSet
Fore
737.115 1066.38 m 0
 657.333 934.584 l 1
 626.361 953.512 588.071 1065 546 1065 c 0
 360 1065 281 768 281 540 c 0
 281 65 l 1
 361 0 l 9
 39 0 l 1
 129 60 l 1
 129 1035 l 1
 49 1073 l 1
 281 1073 l 1
 281 892 l 17
 316 1004 428 1102 586 1102 c 0
 640.357 1102 691.365 1090.07 737.115 1066.38 c 0
EndSplineSet
KernsSLIFO: 124 -41 0 0
EndChar
StartChar: s
Encoding: 83 115 39
Width: 921
Flags: HMW
Back
108.544 806.912 m 4
 108.544 967.442 265.438 1097.73 458.752 1097.73 c 4
 652.066 1097.73 808.96 967.442 808.96 806.912 c 4
 808.96 646.382 652.066 516.096 458.752 516.096 c 4
 265.438 516.096 108.544 646.382 108.544 806.912 c 4
264.192 802.816 m 0
 264.192 890.995 353.189 962.561 462.848 962.561 c 0
 572.506 962.561 661.504 890.995 661.504 802.816 c 0
 661.504 714.638 572.506 643.072 462.848 643.072 c 0
 353.189 643.072 264.192 714.638 264.192 802.816 c 0
104.448 296.96 m 0
 104.448 475.578 266.847 620.544 466.944 620.544 c 0
 667.042 620.544 829.44 475.578 829.44 296.96 c 0
 829.44 118.342 667.042 -26.624 466.944 -26.624 c 0
 266.847 -26.624 104.448 118.342 104.448 296.96 c 0
256 301.056 m 0
 256 408.453 349.585 495.616 464.896 495.616 c 0
 580.207 495.616 673.792 408.453 673.792 301.056 c 0
 673.792 193.659 580.207 106.496 464.896 106.496 c 0
 349.585 106.496 256 193.659 256 301.056 c 0
143.36 1474.56 m 25
 143.36 -53.248 l 25
430.08 1466.37 m 25
 430.08 -61.4404 l 25
286.72 -69.6318 m 25
 286.72 1458.18 l 25
 286.72 -69.6318 l 25
573.44 1470.46 m 25
 573.44 -57.3438 l 25
716.8 1466.37 m 25
 716.8 -61.4404 l 25
860.16 -49.1523 m 25
 860.16 1478.66 l 25
 860.16 -49.1523 l 25
EndSplineSet
Fore
469 477 m 0
 304 531 121 604 121 809 c 0
 121 1000 283 1096 469 1098 c 0
 696.932 1098 795.469 957.036 823 871 c 1
 855 780 772 768 748 856 c 1
 739.383 875.646 732.539 894.313 715 930 c 1
 681.654 997.848 552.914 1073 471 1073 c 0
 373 1073 274 914 274 813 c 0
 274 686 408 650 471 627 c 0
 610 576 840 518 840 287 c 0
 840 101 670 -29 473 -29 c 0
 260 -29 143 78 96 217 c 1
 70 305 145 327 188 232 c 1
 210 155 l 1
 247.787 73.5312 365.749 6 469 6 c 0
 604 6 686 174 686 287 c 0
 686 399 566 446 469 477 c 0
EndSplineSet
EndChar
StartChar: t
Encoding: 84 116 40
Width: 696
Flags: HMW
Back
143.36 1474.56 m 29
 143.36 -53.248 l 29
430.08 1466.37 m 29
 430.08 -61.4404 l 29
286.72 -69.6318 m 29
 286.72 1458.18 l 29
 286.72 -69.6318 l 29
573.44 1470.46 m 29
 573.44 -57.3438 l 29
716.8 1466.37 m 29
 716.8 -61.4404 l 29
860.16 -49.1523 m 29
 860.16 1478.66 l 29
 860.16 -49.1523 l 29
EndSplineSet
Fore
244 1038 m 0
 112 1038 l 1
 127.526 1044.55 106.171 1065.75 120 1073.15 c 1
 236.315 1100.19 339.554 1206.46 372 1320 c 1
 377.062 1331.53 390.471 1311.21 395 1323 c 1
 395 1073 l 0
 582 1073 l 5
 542 1038 l 5
 395 1038 l 0
 395 95 l 2
 395 17 435 18 512 18 c 2
 510 0 l 1
 428 -28.6719 340 -48.3998 284 -16 c 1
 235.419 3.83594 241.942 99.6875 244 171 c 1
 244 1038 l 0
EndSplineSet
EndChar
StartChar: u
Encoding: 85 117 41
Width: 1064
Flags: HMW
Back
143.36 1474.56 m 29
 143.36 -53.248 l 29
430.08 1466.37 m 29
 430.08 -61.4404 l 29
286.72 -69.6318 m 29
 286.72 1458.18 l 29
 286.72 -69.6318 l 29
573.44 1470.46 m 29
 573.44 -57.3438 l 29
716.8 1466.37 m 29
 716.8 -61.4404 l 29
860.16 -49.1523 m 29
 860.16 1478.66 l 29
 860.16 -49.1523 l 29
EndSplineSet
Fore
715 1073 m 9
 1027 1073 l 1
 947 1025 l 1
 947 65 l 1
 1027 0 l 1
 795 0 l 1
 795 181.152 l 17
 760.023 69.2263 648.148 -28.8478 490.313 -28.8478 c 0
 275.843 -28.8478 120 139.868 120 532.152 c 2
 120 1025 l 1
 40 1073 l 1
 351 1073 l 0
 271 1015 l 1
 271 532.152 l 1
 271 299.152 344 8.15234 530 8.15234 c 0
 716 8.15234 795 305.152 795 533.152 c 0
 795 1025 l 1
 715 1073 l 9
EndSplineSet
EndChar
StartChar: v
Encoding: 86 118 42
Width: 1024
Flags: HMW
Back
143.36 1474.56 m 29
 143.36 -53.248 l 29
430.08 1466.37 m 29
 430.08 -61.4404 l 29
286.72 -69.6318 m 29
 286.72 1458.18 l 29
 286.72 -69.6318 l 29
573.44 1470.46 m 29
 573.44 -57.3438 l 29
716.8 1466.37 m 29
 716.8 -61.4404 l 29
860.16 -49.1523 m 29
 860.16 1478.66 l 29
 860.16 -49.1523 l 29
EndSplineSet
Fore
446 0 m 1
 99.9795 1020 l 1
 2 1073 l 1
 322 1073 l 1
 250.929 1045 l 1
 570 85 l 5
 896.578 1035 l 1
 829 1073 l 1
 1047 1073 l 1
 953.932 1035 l 1
 598 0 l 1
 446 0 l 1
EndSplineSet
EndChar
StartChar: w
Encoding: 87 119 43
Width: 1374
Flags: HMW
Back
143.36 1474.56 m 29
 143.36 -53.248 l 29
430.08 1466.37 m 29
 430.08 -61.4404 l 29
286.72 -69.6318 m 29
 286.72 1458.18 l 29
 286.72 -69.6318 l 29
573.44 1470.46 m 29
 573.44 -57.3438 l 29
716.8 1466.37 m 29
 716.8 -61.4404 l 29
860.16 -49.1523 m 29
 860.16 1478.66 l 29
 860.16 -49.1523 l 29
EndSplineSet
Fore
698 862 m 1
 471 0 l 1
 354 0 l 1
 80.794 1025 l 1
 -12 1073 l 1
 301 1073 l 1
 233.429 1020 l 1
 475 140 l 1
 723 1065 l 0
 723 1065 754.11 1065 774 1065 c 17
 1030 80 l 1
 1282.4 1027 l 1
 1196 1073 l 1
 1409 1073 l 1
 1317.5 1030 l 1
 1042 0 l 1
 920 0 l 1
 698 862 l 1
EndSplineSet
EndChar
StartChar: x
Encoding: 88 120 44
Width: 901
Flags: HMW
Back
143.36 1474.56 m 29
 143.36 -53.248 l 29
430.08 1466.37 m 29
 430.08 -61.4404 l 29
286.72 -69.6318 m 29
 286.72 1458.18 l 29
 286.72 -69.6318 l 29
573.44 1470.46 m 29
 573.44 -57.3438 l 29
716.8 1466.37 m 29
 716.8 -61.4404 l 29
860.16 -49.1523 m 29
 860.16 1478.66 l 29
 860.16 -49.1523 l 29
EndSplineSet
Fore
950 0 m 1
 620 0 l 1
 675.352 45 l 1
 430 464 l 1
 146.909 40 l 1
 209 0 l 1
 -7 0 l 1
 95.1279 42 l 1
 402 495 l 1
 77.2022 1035 l 1
 -25 1073 l 9
 103.7 1073 305 1073 305 1073 c 0
 245.488 1035 l 1
 486 605 l 0
 771.599 1035 l 1
 712 1073 l 1
 912 1073 l 1
 816.768 1030 l 1
 520 575 l 0
 840.626 50 l 1
 950 0 l 1
EndSplineSet
EndChar
StartChar: y
Encoding: 89 121 45
Width: 1064
Flags: HMW
Back
316.295 -362.899 m 4,13,14
493 -449 m 4,2,3
 237 -449 175 -315 79.1543 -160.656 c 5,4,-1
 50 -75 165 -28.6719 205 -125 c 4,5,6
 280.199 -306.094 275.585 -407.188 504 -413 c 4,7,8
794.624 1073.15 m 9,0,-1
 946.176 1073.15 l 1,1,-1
 946.176 0 l 1,2,-1
 794.624 0 l 1,3,-1
 794.624 180.224 l 17,4,5
 761.856 102.4 651.264 -28.6719 522.24 -28.6719 c 0,6,7
 319.685 -28.6719 118.771 170.912 118.786 413.696 c 1,8,-1
 118.784 1073.15 l 1,9,-1
 270.336 1073.15 l 0,10,-1
 270.336 411.648 l 2,11,12
 270.336 222.562 402.276 108.544 524.288 108.544 c 0,13,14
 667.648 108.544 794.626 266.24 794.626 454.656 c 0,15,-1
 794.624 1073.15 l 9,0,-1
143.36 1474.56 m 25,16,-1
 143.36 -53.248 l 25
430.08 1466.37 m 25,18,-1
 430.08 -61.4404 l 25
286.72 -69.6318 m 25,20,-1
 286.72 1458.18 l 25,21,-1
 286.72 -69.6318 l 25,20,-1
573.44 1470.46 m 25,22,-1
 573.44 -57.3438 l 25
716.8 1466.37 m 25,24,-1
 716.8 -61.4404 l 25
860.16 -49.1523 m 25,26,-1
 860.16 1478.66 l 25,27,-1
 860.16 -49.1523 l 25,26,-1
EndSplineSet
Fore
947 62 m 2
 947 -285 723 -449 520 -449 c 1
 340 -449 215 -415 95 -180 c 1
 30 -75 143.36 0 205 -126 c 1
 241.459 -278.488 322.815 -418.505 520 -413 c 0
 645 -413 795 -300 795 47 c 0
 795 118.384 795 128.833 795 181.152 c 17
 760.023 69.2263 648.148 -28.8478 490.313 -28.8478 c 0
 275.843 -28.8478 120 139.868 120 532.152 c 2
 120 1025 l 1
 40 1073 l 1
 351 1073 l 0
 271 1025 l 1
 271 532.152 l 1
 271 299.152 344 8.15234 530 8.15234 c 0
 716 8.15234 795 305.152 795 533.152 c 0
 795 1073 l 9
 1027 1073 l 1
 947 1025 l 1
 947 62 l 2
EndSplineSet
KernsSLIFO: 129 117 0 0
EndChar
StartChar: z
Encoding: 90 122 46
Width: 962
Flags: HMW
Back
143.36 1474.56 m 29
 143.36 -53.248 l 29
430.08 1466.37 m 29
 430.08 -61.4404 l 29
286.72 -69.6318 m 29
 286.72 1458.18 l 29
 286.72 -69.6318 l 29
573.44 1470.46 m 29
 573.44 -57.3438 l 29
716.8 1466.37 m 29
 716.8 -61.4404 l 29
860.16 -49.1523 m 29
 860.16 1478.66 l 29
 860.16 -49.1523 l 29
EndSplineSet
Fore
242 131 m 1
 820 131 l 1
 877 251 l 1
 877 0 l 1
 90 0 l 1
 755 942 l 2
 180 942 l 1
 131 822 l 1
 131 1073 l 1
 907 1073 l 1
 242 131 l 1
EndSplineSet
EndChar
StartChar: Oslash
Encoding: 151 216 53
Width: 2416
Flags: HMW
Fore
400 41 m 1
 369 -29 l 1
 217 -29 l 1
 291 134 l 1
 203 233 148 366 120 500 c 0
 104 574 96 649 96 718 c 1
 96 1034 244 1477 655 1477 c 1
 739 1477 812 1459 874 1427 c 1
 905 1496 l 0
 1057 1496 l 1
 988 1345 l 1
 1094 1242 1159 1093 1190 943 c 0
 1207 866 1214 789 1214 718 c 1
 1214 402 1065 -29 655 -29 c 1
 555 -29 470 -3 400 41 c 1
458 170 m 1
 512 133 577 111 655 111 c 1
 963 111 1063 452 1063 718 c 0
 1063 790 1056 868 1040 945 c 0
 1019 1042 983 1135 926 1207 c 1
 458 170 l 1
356 279 m 1
 816 1300 l 1
 770 1324 717 1338 655 1338 c 0
 346 1338 248 984 248 718 c 1
 248 647 254 571 270 498 c 0
 287 419 314 342 356 279 c 1
EndSplineSet
EndChar
StartChar: Thorn
Encoding: 157 222 57
Width: 1329
Flags: HMW
Fore
303 477 m 1
 573 477 870 530 870 750 c 1
 870 765 868 780 865 794 c 0
 824 987 508 1010 303 1010 c 1
 303 477 l 1
145 1456 m 0
 303 1456 l 1
 303 1150 l 1
 645 1150 965 1081 1019 828 c 0
 1024 804 1027 778 1027 750 c 0
 1027 407 671 337 303 337 c 1
 303 0 l 1
 145 0 l 1
 145 1456 l 0
EndSplineSet
EndChar
StartChar: germandbls
Encoding: 158 223 58
Width: 1212
Flags: HMW
Fore
174 1152 m 1
 242 1333 400 1479 655 1479 c 1
 869 1479 1051 1368 1092 1174 c 0
 1097.24 1146.94 1100.19 1117.59 1100.19 1087.28 c 0
 1100.19 1082.88 1100.13 1078.45 1100 1074 c 1
 1100 880 900 778 780 747 c 1
 882 722 1071 629 1110 446 c 0
 1115 425 1117 402 1117 378 c 1
 1117 72 902 -30 611 -30 c 1
 546 -30 493 -11 425 23 c 9
 516 146 l 17
 550 133 581 110 611 110 c 1
 807 110 970 158 970 378 c 1
 970 393 968 408 965 423 c 0
 932 577 731 679 552 679 c 1
 537 679 527 679 516 679 c 0
 503 679 491 679 474 673 c 1
 474 825 l 1
 489 821 499 821 510 821 c 0
 522 821 535 821 552 821 c 1
 723 821 951 918 951 1074 c 1
 951 1101 948 1127 943 1150 c 0
 915 1282 810 1342 655 1342 c 1
 451 1342 365 1241 316 1105 c 1
 242 885 259 310 240 0 c 1
 92 0 l 1
 124 361 100 928 174 1152 c 1
EndSplineSet
EndChar
StartChar: ae
Encoding: 165 230 63
Width: 1486
Flags: HMW
Back
849.216 604.16 m 5
 1379.01 604.16 l 5
 1361.25 781.345 1273.92 958.464 1114.11 958.464 c 4
 954.305 958.464 866.976 781.345 849.216 604.16 c 5
849.185 468.992 m 5
 866.88 290.24 954.241 106.496 1114.11 106.496 c 4
 1208.35 106.496 1274.62 162.464 1317.73 242.655 c 4
 1450.69 187.616 l 4
 1382.37 55.4238 1268.58 -28.6719 1114.11 -28.6719 c 5
 847.872 -28.6719 702.464 221.184 702.464 536.576 c 4
 702.464 851.968 847.872 1093.63 1114.11 1093.63 c 4
 1380.35 1093.63 1525.76 851.968 1525.76 536.576 c 4
 1525.76 514.539 1524.65 491.84 1522.62 468.992 c 5
 849.185 468.992 l 5
466.944 602.112 m 4
 315.392 602.112 221.184 483.328 221.184 354.304 c 4
 221.184 225.28 315.392 106.496 466.944 106.496 c 4
 593.92 106.496 712.704 221.184 712.704 354.304 c 5
 712.704 487.424 593.92 602.112 466.944 602.112 c 4
466.944 737.28 m 4
 606.208 737.28 688.128 679.936 716.8 630.784 c 5
 715.651 675.84 l 4
 715.651 829.44 622.592 954.368 471.04 954.368 c 4
 376.832 954.368 290.816 921.6 245.76 876.544 c 13
 215.408 916.48 167.936 978.944 167.936 978.944 c 4
 237.568 1036.29 327.68 1089.54 471.04 1089.54 c 4
 669.379 1089.54 851.697 944.128 851.697 675.84 c 4
 849.92 552.96 l 4
 851.968 270.336 l 5
 851.968 196.608 880.64 114.688 966.656 114.688 c 5
 966.656 -20.4805 l 5
 843.776 -20.4805 763.904 8.19238 745.472 100.352 c 5
 716.8 53.248 630.784 -28.6719 466.944 -28.6719 c 5
 241.664 -28.6719 77.8242 139.264 77.8242 354.304 c 4
 77.8242 569.344 262.144 737.28 466.944 737.28 c 4
EndSplineSet
Fore
436 602 m 0
 285 602 236 483 236 354 c 0
 236 325 238 296 244 269 c 0
 263 177 319 106 436 106 c 0
 563 106 637 221 637 354 c 1
 637 379 634 402 630 425 c 0
 608 525 540 602 436 602 c 0
721 910 m 1
 791 1024 858 1094 1001 1094 c 0
 1201 1094 1313 957 1355 756 c 0
 1370 689 1376 615 1376 537 c 0
 1376 515 1373 492 1373 469 c 1
 783 469 l 1
 783 436 786 382 798 325 c 0
 820 220 875 106 1001 106 c 0
 1096 106 1121 162 1164 243 c 0
 1297 188 l 0
 1229 55 1156 -29 1001 -29 c 0
 841 -29 789 55 719 164 c 1
 666 70 629 -29 436 -29 c 0
 249 -29 129 88 94 251 c 0
 88 284 84 318 84 354 c 0
 84 569 231 737 436 737 c 0
 564 737 602 690 641 633 c 1
 643 649 637 676 640 692 c 1
 640 726 637 759 630 789 c 0
 610 886 552 954 440 954 c 0
 346 954 301 922 256 877 c 9
 226 916 178 979 178 979 c 0
 248 1036 297 1090 440 1090 c 0
 570 1090 652 1027 721 910 c 1
783 604 m 1
 1221 604 l 1
 1217 648 1211 691 1202 732 c 0
 1176 858 1122 958 1001 958 c 0
 838 958 786 756 783 604 c 1
EndSplineSet
EndChar
StartChar: igrave
Encoding: 171 236 68
Width: 428
Flags: HMW
Fore
150 1073 m 1
 301 1073 l 1
 301 0 l 1
 150 0 l 1
 150 1073 l 1
EndSplineSet
Refer: 119 96 N 1 0 0 1 -172 14 2
EndChar
StartChar: iacute
Encoding: 172 237 69
Width: 421
Flags: HMW
Fore
150 1073 m 1
 301 1073 l 1
 301 0 l 1
 150 0 l 1
 150 1073 l 1
EndSplineSet
Refer: 153 180 N 1 0 0 1 76 -8 2
EndChar
StartChar: icircumflex
Encoding: 173 238 70
Width: 888
Flags: HMW
Fore
391 1073 m 1
 543 1073 l 1
 543 0 l 1
 391 0 l 1
 391 1073 l 1
EndSplineSet
Refer: 117 94 N 1 0 0 1 -18 -31 2
EndChar
StartChar: idieresis
Encoding: 174 239 71
Width: 667
Flags: HMW
Fore
272 1073 m 1
 424 1073 l 1
 424 0 l 1
 272 0 l 1
 272 1073 l 1
EndSplineSet
Refer: 144 168 N 1 0 0 1 -68 430 2
EndChar
StartChar: eth
Encoding: 175 240 72
Width: 1030
Flags: HMW
Fore
233 455 m 0
 233 420 237 389 243 359 c 0
 279 191 406 106 492 106 c 0
 645 106 776 279 776 455 c 1
 776 478 774 500 769 521 c 0
 736 679 586 791 453 791 c 1
 330 791 233 604 233 455 c 0
684 1290 m 1
 759 1204 871 1033 906 870 c 0
 911 846 914 823 915 801 c 1
 921.257 710.727 928.312 643.62 928.312 540.417 c 0
 928.312 528.154 928.212 515.382 928 502 c 1
 928 193 737 -29 502 -29 c 0
 260 -29 137 118 97 307 c 0
 87 355 82 407 82 459 c 0
 82 717 248 926 463 926 c 0
 633 926 684 846 760 778 c 1
 760 799 757 824 751 851 c 0
 725 971 648 1136 571 1204 c 1
 418 1061 l 1
 319 1161 l 1
 455 1290 l 1
 401 1309 348 1315 295 1315 c 0
 256 1315 217 1311 180 1307 c 1
 166 1454 l 1
 193 1456 221 1456 248 1456 c 0
 360 1456 471 1440 575 1386 c 1
 731 1526 l 1
 827 1417 l 1
 684 1290 l 1
EndSplineSet
EndChar
StartChar: oslash
Encoding: 183 248 79
Width: 1024
Flags: HMW
Back
96.2559 536.576 m 4
 96.2559 851.968 241.664 1093.63 507.904 1093.63 c 4
 774.144 1093.63 919.552 851.968 919.552 536.576 c 4
 919.552 221.184 774.144 -28.6719 507.904 -28.6719 c 5
 241.664 -28.6719 96.2559 221.184 96.2559 536.576 c 4
239.616 536.576 m 4
 239.616 339.968 327.68 106.496 507.904 106.496 c 4
 700.416 106.496 776.192 339.968 776.192 536.576 c 4
 776.192 733.184 688.128 958.464 507.904 958.464 c 4
 327.68 958.464 239.616 733.184 239.616 536.576 c 4
EndSplineSet
Fore
743 771 m 1
 369 174 l 1
 409 132 458 106 518 106 c 0
 711 106 782 340 782 537 c 0
 782 588 778 641 767 691 c 0
 761 719 754 746 743 771 c 1
666 895 m 1
 626 934 577 958 518 958 c 0
 338 958 254 733 254 537 c 0
 254 485 258 431 269 379 c 0
 275 351 283 324 293 299 c 1
 666 895 l 1
86 -29 m 1
 201 153 l 1
 165 211 137 282 120 361 c 0
 109 416 102 475 102 537 c 0
 102 852 252 1094 518 1094 c 0
 607 1094 683 1067 744 1019 c 1
 793 1098 l 1
 948 1098 l 1
 835 917 l 1
 872 859 900 789 916 710 c 0
 928 656 934 598 934 537 c 0
 934 221 784 -29 518 -29 c 1
 429 -29 353 -0 291 49 c 1
 243 -29 l 1
 86 -29 l 1
EndSplineSet
EndChar
StartChar: thorn
Encoding: 189 254 83
Width: 1003
Flags: HMW
Fore
281 0 m 17
 129 0 l 1
 129 1454 l 1
 281 1454 l 1
 281 1112 l 17
 346 1206 416 1284 561 1284 c 0
 755 1284 872 1125 915 922 c 0
 928 862 934 798 934 733 c 0
 934 451 846 164 522 164 c 1
 358 164 281 311 281 311 c 0
 281 311 281 121 281 0 c 17
782 729 m 0
 782 792 776 851 765 904 c 0
 734 1049 664 1149 571 1149 c 1
 432 1149 276 987 276 729 c 1
 276 672 282 621 292 576 c 0
 331 389 442 299 532 299 c 0
 682 299 782 455 782 729 c 0
EndSplineSet
EndChar
StartChar: Euro
Encoding: 202 8364 87
Width: 1089
Flags: HMW
Fore
270 762 m 1
 141 762 l 1
 141 897 l 1
 294 897 l 1
 344 1069 465 1196 637 1196 c 0
 797 1196 858 1155 952 1063 c 9
 915 1025 856 967 856 967 c 0
 799 1024 756 1061 637 1061 c 1
 552 1061 489 988 451 897 c 1
 721 897 l 1
 721 762 l 1
 415 762 l 1
 413 743 412 724 412 707 c 0
 412 685 413 665 415 645 c 1
 715 645 l 1
 715 510 l 1
 450 510 l 1
 497 403 577 346 637 346 c 0
 723 346 774 362 860 457 c 9
 956 360 l 1
 889 283 827 211 637 211 c 1
 452 211 341 341 294 510 c 1
 135 510 l 1
 135 645 l 1
 271 645 l 1
 269 667 268 689 268 711 c 0
 268 728 269 745 270 762 c 1
EndSplineSet
EndChar
StartChar: A
Encoding: 33 65 88
Width: 1302
Flags: HMW
Fore
575 1280 m 1
 355 621 l 1
 797 621 l 1
 575 1280 l 1
837 485 m 1
 310 485 l 0
 178.062 90 l 0
 215 0 l 0
 0 0 l 1
 102.591 85 l 0
 596 1456 l 0
 596 1456 639.92 1454.83 668 1454.08 c 17
 1120 100 l 1
 1151.41 65.3311 1206.96 28.5015 1247 0 c 1
 901 0 l 1
 938.363 18.4561 982.988 30.168 965.01 100 c 1
 837 485 l 1
EndSplineSet
KernsSLIFO: 90 -80 0 0 43 -94 0 0 42 -164 0 0 109 -213 0 0 107 -98 0 0
EndChar
StartChar: B
Encoding: 34 66 89
Width: 1179
Flags: HMW
Back
337.92 1085.44 m 4
 337.92 1243.71 466.37 1372.16 624.64 1372.16 c 4
 782.909 1372.16 911.36 1243.71 911.36 1085.44 c 4
 911.36 927.171 782.909 798.72 624.64 798.72 c 4
 466.37 798.72 337.92 927.171 337.92 1085.44 c 4
262.144 405.504 m 4
 262.144 604.472 423.625 765.952 622.592 765.952 c 4
 821.56 765.952 983.04 604.472 983.04 405.504 c 4
 983.04 206.537 821.56 45.0557 622.592 45.0557 c 4
 423.625 45.0557 262.144 206.537 262.144 405.504 c 4
EndSplineSet
Fore
279 743 m 1
 280 42 l 1
 599 42 l 1
 839 42 930 287 930 430 c 0
 930 452 928 473 923 494 c 0
 899 610 801 743 598 743 c 1
 571 743 311 743 279 743 c 1
280 1410 m 1
 282 790 l 1
 320 790 486 790 519 790 c 1
 808 790 850 991 850 1079 c 1
 850 1095 849 1112 845 1130 c 0
 827 1214 755 1408 517 1408 c 1
 486 1408 316 1410 280 1410 c 1
40 1454.08 m 1
 516 1456 l 1
 844 1456 971 1301 1002 1156 c 0
 1007 1130 1010 1104 1010 1079 c 1
 1010 915 864 782 756 782 c 1
 958 782 1051 620 1077 496 c 0
 1083 469 1085 445 1085 424 c 1
 1085 287 1034 0 598 0 c 1
 25 0 l 1
 121 51 l 0
 121 1403 l 0
 40 1454.08 l 1
EndSplineSet
EndChar
StartChar: C
Encoding: 35 67 90
Width: 1220
Flags: HMW
Fore
1130 255 m 1
 1080 155 965 -29 700 -29 c 0
 291 -29 100 337 100 725 c 0
 100 1114 293 1495 702 1495 c 0
 967 1495 1087.49 1310 1150.98 1185 c 1
 1177.98 1111 1079.52 1075.15 1043.52 1155 c 0
 983.005 1349.95 885.392 1469.45 702 1456 c 2
 700 1456 l 0
 412 1456 266 1037 266 725 c 0
 266 404 428 7 700 7 c 0
 844 7 925 70 1034.47 297 c 1
 1081.28 369.853 1170 320 1130 255 c 1
EndSplineSet
EndChar
StartChar: D
Encoding: 36 68 91
Width: 1220
Flags: HMW
Fore
987 727 m 0
 987 975 847 1415 494 1415 c 5
 279 1415 l 1
 279 41 l 1
 494 41 l 5
 842 41 987 381 987 727 c 0
1153 727 m 0
 1153 319 912 0 535 0 c 5
 51 0 l 1
 121 45 l 0
 121 1412 l 0
 51 1456 l 1
 535 1456 l 6
 912 1456 1153 1103 1153 727 c 0
EndSplineSet
EndChar
StartChar: E
Encoding: 37 69 92
Width: 1142
Flags: HMW
Fore
41 1456 m 0
 1002 1456 l 1
 1002 1315 l 0
 925 1415 l 0
 279 1415 l 0
 279 767 l 1
 760 767 l 0
 829 817 l 1
 829 676 l 0
 755 726 l 0
 279 726 l 0
 279 41 l 0
 960 41 l 0
 1042 141 l 0
 1042 0 l 0
 41 0 l 1
 121 55 l 0
 121 1420 l 0
 41 1456 l 0
EndSplineSet
KernsSLIFO: 105 41 0 0
EndChar
StartChar: F
Encoding: 38 70 93
Width: 1146
Flags: HMW
Fore
41 1456 m 1
 1002 1456 l 1
 1002 1315 l 17
 920 1415 l 0
 279 1415 l 9
 279 767 l 1
 695 767 l 0
 759 817 l 1
 759 676 l 17
 690 726 l 0
 279 726 l 1
 279 58 l 0
 359 0 l 1
 41 0 l 1
 121 60 l 0
 121 1410 l 0
 41 1456 l 1
EndSplineSet
EndChar
StartChar: G
Encoding: 39 71 94
Width: 1363
Flags: HMW
Fore
1028 1 m 1
 1028 656 l 1
 1188 656 l 1
 1188 1 l 1
 1028 1 l 1
700 -29 m 0
 312 -29 100 339 100 731 c 0
 100 1071 291 1495 702 1495 c 0
 926 1495 1047 1401 1137 1260 c 1
 1170 1180 1045 1115 999 1192 c 1
 930 1288 854 1454 702 1454 c 1
 414 1454 266 1004 266 731 c 0
 266 439 415 11 700 11 c 1
 970.663 11 1117.49 350 1107 655 c 1
 990 655 l 0
 924 555 l 1
 924 696 l 1
 990 696 l 1
 1283 696 l 1
 1283.04 687.752 1254.39 659.524 1235 651.321 c 1
 1215 655 1152.54 653.744 1152.23 645 c 1
 1139.27 280.536 1045.55 -30.0849 700 -29 c 0
EndSplineSet
KernsSLIFO: 107 -68 0 0
EndChar
StartChar: H
Encoding: 40 72 95
Width: 1198
Flags: HMW
Fore
41 1456 m 0
 359 1456 l 1
 279 1415 l 0
 279 765 l 1
 940 765 l 1
 940 1420 l 0
 860 1456 l 1
 1178 1456 l 1
 1098 1414 l 0
 1098 48 l 0
 1178 0 l 1
 860 0 l 1
 940 52 l 0
 940 724 l 0
 279 724 l 1
 279 57 l 0
 359 0 l 1
 41 0 l 1
 121 60 l 0
 121 1415 l 0
 41 1456 l 0
EndSplineSet
EndChar
StartChar: I
Encoding: 41 73 96
Width: 444
Flags: HMW
Fore
64 0 m 1
 154 65 l 0
 154 1410 l 0
 64 1456 l 1
 391 1456 l 1
 311 1410 l 0
 311 55 l 0
 391 0 l 1
 64 0 l 1
EndSplineSet
EndChar
StartChar: J
Encoding: 42 74 97
Width: 1140
Flags: HMW
Fore
113 535 m 1
 143.36 580 216 576 236 500 c 1
 172 172 382.07 -9.13211 565 21 c 1
 885 21 870 334 870 535 c 2
 870 1420 l 0
 790 1456 l 1
 1108 1456 l 1
 1028 1415 l 0
 1028 535 l 2
 1028 209 840 -29 565 -29 c 1
 340 -29 178 144 129 378 c 0
 118 427 113 480 113 535 c 1
EndSplineSet
EndChar
StartChar: K
Encoding: 43 75 98
Width: 1239
Flags: HMW
Fore
41 1456 m 0
 359 1456 l 1
 279 1400 l 0
 279 632 l 5
 1105.29 1425 l 0
 1056 1456 l 1
 1299 1456 l 1
 1188.24 1425 l 0
 571 833 l 5
 1201.92 40 l 0
 1315 0 l 1
 948 0 l 1
 996.034 40 l 0
 467 732 l 5
 279 546 l 5
 279 50 l 0
 359 0 l 1
 41 0 l 1
 121 50 l 0
 121 1405 l 0
 41 1456 l 0
EndSplineSet
KernsSLIFO: 102 -109 0 0
EndChar
StartChar: L
Encoding: 44 76 99
Width: 1105
Flags: HMW
Fore
41 1456 m 1
 359 1456 l 1
 279 1405 l 0
 279 41 l 1
 990 41 l 0
 1044 211 l 1
 1044 0 l 1
 41 0 l 1
 121 60 l 0
 121 1410 l 0
 41 1456 l 1
EndSplineSet
EndChar
StartChar: M
Encoding: 45 77 100
Width: 1562
Flags: HMW
Fore
41 0 m 1
 121 53 l 0
 121 1411 l 0
 41 1456 l 2
 336 1456 l 1
 820 405 l 1
 1339 1456 l 1
 1542 1456 l 1
 1462 1402 l 0
 1462 50 l 0
 1542 0 l 1
 1229 0 l 17
 1309 55 l 0
 1309 1290 l 1
 765 160 l 0
 717 272 l 1
 176 1416 l 0
 174 55 l 0
 254 0 l 1
 41 0 l 1
EndSplineSet
EndChar
StartChar: N
Encoding: 46 78 101
Width: 1271
Flags: HMW
Fore
41 0 m 1
 121 55 l 0
 121 1420 l 0
 41 1456 l 2
 274 1456 l 1
 1014 145 l 17
 1014 1405 l 0
 934 1456 l 1
 1261 1456 l 1
 1171 1415 l 0
 1171 0 l 1
 1040.98 -1 l 1
 279 1350 l 0
 279 55 l 0
 359 0 l 1
 41 0 l 1
EndSplineSet
EndChar
StartChar: O
Encoding: 47 79 102
Width: 1333
Flags: HMW
Fore
1096 725 m 0
 1096 797 1089 876 1073 952 c 0
 1028 1161 913 1454 676 1454 c 0
 354 1454 258 995 258 725 c 1
 258 655 265 580 280 507 c 0
 324 300 440 13 676 13 c 1
 997 13 1096 457 1096 725 c 0
92 725 m 1
 92 1047 248 1495 676 1495 c 1
 1011 1495 1180 1222 1238 950 c 0
 1254 873 1262 796 1262 725 c 1
 1262 406 1104 -29 676 -29 c 1
 342 -29 173 238 115 508 c 0
 99 582 92 656 92 725 c 1
EndSplineSet
KernsSLIFO: 88 -98 0 0 107 -113 0 0
EndChar
StartChar: P
Encoding: 48 80 103
Width: 1099
Flags: HMW
Fore
279 724 m 1
 495 724 l 1
 815 724 870 938 870 1067 c 1
 870 1086 869 1106 864 1127 c 0
 843 1228 770 1420 485 1415 c 1
 279 1415 l 1
 279 724 l 1
41 1456 m 0
 279 1456 l 1
 485 1456 l 1
 835 1454.08 1024 1315 1024 1132 c 0
 1024 1103.56 1032 1096 1032 1067 c 0
 1032 841 874 691 495 691 c 1
 279 691 l 1
 279 50 l 1
 359 0 l 1
 41 0 l 1
 121 50 l 1
 121 1415 l 1
 41 1456 l 0
EndSplineSet
KernsSLIFO: 88 -137 0 0
EndChar
StartChar: Q
Encoding: 49 81 104
Width: 1370
Flags: HMW
Back
1273.04 83.6143 m 5
 1186.51 -32.9658 l 5
 699.626 328.428 l 5
 786.157 445.006 l 5
 1273.04 83.6143 l 5
1101.68 725.914 m 0
 1101.68 994.929 994.929 1353.62 672.539 1353.62 c 0
 350.146 1353.62 243.395 994.929 243.395 725.914 c 1
 243.395 456.898 352.282 111.022 672.539 111.022 c 1
 992.795 111.022 1101.68 456.898 1101.68 725.914 c 0
93.9424 725.914 m 1
 93.9424 1046.17 243.395 1494.53 672.539 1494.53 c 1
 1101.68 1494.53 1251.13 1046.17 1251.13 725.914 c 1
 1251.13 405.657 1099.55 -29.8896 672.539 -29.8896 c 1
 245.53 -29.8896 93.9424 405.657 93.9424 725.914 c 1
EndSplineSet
Fore
1104 725 m 1
 1104 797 1097 873 1082 945 c 0
 1035 1163 912 1454 674 1454 c 1
 397 1454 258 1047 258 725 c 1
 258 661 264 589 280 516 c 0
 323 312 439 13 692 13 c 1
 790 0 894 69 957 157 c 1
 765 345 l 1
 550 405 l 1
 793 406 l 1
 994 210 l 1
 1064 308 1104 528 1104 725 c 1
92 725 m 1
 92 1047 256 1495 676 1495 c 1
 1015 1495 1188 1218 1246 943 c 0
 1262 869 1270 794 1270 725 c 1
 1270 506 1163 242 1085 140 c 1
 1185 35 l 1
 1410 -28.6719 l 1
 1148 -31 l 1
 1030 95 l 1
 946 28 850 -29 688 -29 c 1
 345 -29 173 237 115 509 c 0
 99 582 92 656 92 725 c 1
EndSplineSet
EndChar
StartChar: R
Encoding: 50 82 105
Width: 1101
Flags: HMW
Back
268.288 774.145 m 5
 475.136 774.145 l 5
 794.624 774.145 860.16 917.504 860.16 1046.53 c 5
 860.16 1159.17 802.816 1314.82 475.136 1314.82 c 5
 268.288 1314.82 l 5
 268.288 774.145 l 5
110.592 1456.13 m 4
 268.288 1456.13 l 5
 475.136 1456.13 l 5
 835.584 1454.08 1021.95 1282.05 1021.95 1046.53 c 4
 1021.95 821.248 854.016 630.784 475.136 630.784 c 5
 268.288 630.784 l 5
 268.288 0 l 5
 110.592 0 l 5
 110.592 1456.13 l 4
EndSplineSet
Fore
279 724 m 1
 485 724 l 1
 811 724 870 956 870 1077 c 0
 870 1232 764 1415 485 1415 c 2
 279 1415 l 1
 279 724 l 1
803 0 m 1
 889.006 50 l 0
 494 681 l 1
 279 681 l 1
 279 50 l 0
 359 0 l 1
 41 0 l 1
 121 50 l 0
 121 1410 l 0
 41 1456 l 0
 279 1456 l 1
 485 1456 l 1
 797 1456 1034 1341 1034 1077 c 0
 1034 880 883 728 660 688 c 1
 1070.51 50 l 0
 1184 0 l 1
 803 0 l 1
EndSplineSet
EndChar
StartChar: S
Encoding: 51 83 106
Width: 1079
Flags: HMW
Back
75.8164 395.264 m 0
 75.8164 630.407 293.161 821.248 571.054 821.248 c 0
 848.947 821.248 1066.29 630.407 1066.29 395.264 c 0
 1066.29 160.12 848.947 -30.7197 571.054 -30.7197 c 0
 293.161 -30.7197 75.8164 160.12 75.8164 395.264 c 0
233.994 397.312 m 0
 233.994 555.581 384.03 684.032 568.894 684.032 c 0
 753.756 684.032 903.793 555.581 903.793 397.312 c 0
 903.793 239.043 753.756 110.592 568.894 110.592 c 0
 384.03 110.592 233.994 239.043 233.994 397.312 c 0
114.688 1105.92 m 4
 114.688 1320.71 317.456 1495.04 567.296 1495.04 c 0
 817.136 1495.04 1019.9 1320.71 1019.9 1105.92 c 0
 1019.9 891.126 817.136 716.8 567.296 716.8 c 0
 317.456 716.8 114.688 891.126 114.688 1105.92 c 4
276.48 1107.97 m 4
 276.48 1243.63 405.848 1353.73 565.248 1353.73 c 0
 724.648 1353.73 854.016 1243.63 854.016 1107.97 c 0
 854.016 972.309 724.648 862.208 565.248 862.208 c 0
 405.848 862.208 276.48 972.309 276.48 1107.97 c 4
EndSplineSet
Fore
45 327 m 1
 25 425 105 475 145 358 c 1
 180 205 l 1
 245 95 285 25 539 13 c 1
 721 13 881 214 881 371 c 0
 881 596.684 582 692 454 744.993 c 0
 309.445 804.841 115 855 114 1136 c 0
 113.199 1361 305 1495 539 1495 c 1
 778 1495 942 1360 993.521 1194 c 1
 1003.52 1100 939 1064.15 896 1160 c 1
 852 1340 763.86 1475.52 539 1454 c 0
 385 1454 276 1260 276 1136 c 0
 276 940 480 875 598 823.515 c 0
 757.17 754.066 1040 665 1034 368 c 0
 1028.57 99.0549 809 -29 539 -29 c 1
 268 -29 116 132 45 327 c 1
EndSplineSet
EndChar
StartChar: T
Encoding: 52 84 107
Width: 1243
Flags: HMW
Fore
88 1456 m 0
 1180 1456 l 1
 1180 1315 l 0
 1115 1415 l 1
 723 1415 l 1
 723 60 l 1
 803 0 l 1
 485 0 l 1
 565 55 l 1
 565 1415 l 1
 160 1415 l 1
 88 1315 l 1
 88 1456 l 0
EndSplineSet
KernsSLIFO: 41 -135 0 0 88 -111 0 0
EndChar
StartChar: U
Encoding: 53 85 108
Width: 1265
Flags: HMW
Back
272.384 1456.13 m 5
 110.592 1456.13 l 5
 110.592 661.504 l 5
 110.592 239.616 307.2 -30.7197 632.832 -30.7197 c 4
 958.47 -30.7197 1155.07 239.616 1155.07 661.504 c 5
 1155.07 1456.13 l 5
 993.28 1456.13 l 5
 993.28 661.504 l 5
 993.28 290.816 827.392 110.592 632.832 110.592 c 5
 438.272 110.592 274.432 290.816 272.384 661.504 c 5
 272.384 1456.13 l 5
EndSplineSet
Fore
1024 1456 m 1
 1245 1456 l 1
 1165 1405 l 1
 1165 645 l 1
 1165 223 1001 -29 673 -29 c 1
 305 -28.6719 121 224.804 121 645 c 1
 121 1405 l 1
 41 1456 l 1
 363 1456 l 1
 283 1405 l 1
 283 645 l 2
 283 250 405 20 673 13 c 0
 940.001 6.0261 1104 274 1104 645 c 1
 1104 1405 l 1
 1024 1456 l 1
EndSplineSet
EndChar
StartChar: V
Encoding: 54 86 109
Width: 1245
Flags: HMW
Fore
1042 1456 m 1
 1266 1456 l 1
 1170.55 1405 l 1
 725 0 l 1
 576 0 l 1
 94.0906 1410 l 1
 0 1456 l 1
 330 1456 l 1
 262.255 1415 l 1
 705 108 l 1
 1109.68 1415 l 1
 1042 1456 l 1
EndSplineSet
KernsSLIFO: 124 -66 0 0 88 -244 0 0 92 -70 0 0
EndChar
StartChar: W
Encoding: 55 87 110
Width: 1576
Flags: HMW
Fore
4 1456 m 25,0,0
4 1456 m 1,0,-1
 324 1456 l 1,1,-1
 251.366 1405 l 1,0,0
 448 182 l 0,2,-1
 771 1376 l 1,0,0
 682 1449 l 1,3,-1
 1007 1449 l 0,4,-1
 940.068 1390 l 1,0,0
 1241 182 l 1,5,-1
 1449.32 1410 l 1,0,0
 1376 1456 l 9,6,-1
 1596 1456 l 1,7,-1
 1507.94 1405 l 1,0,0
 1276 0 l 1,8,-1
 1097 0 l 1,9,-1
 790 1275 l 2,10,-1
 455 0 l 1,11,-1
 311 0 l 2,12,-1
 90.3922 1415 l 1,0,0
 4 1456 l 1,0,-1
EndSplineSet
KernsSLIFO: 124 -27 0 0 88 -96 0 0
EndChar
StartChar: X
Encoding: 56 88 111
Width: 1214
Flags: HMW
Fore
-6 1456 m 0
 336 1456 l 1
 288.618 1405 l 1
 655 825 l 1
 1047.28 1415 l 1
 993 1456 l 1
 1235 1456 l 1
 1124.67 1410 l 1
 690 780 l 1
 1131.16 50 l 1
 1241 0 l 1
 891 0 l 1
 942.805 50 l 1
 585 655 l 1
 189.629 55 l 1
 238 0 l 1
 0 0 l 1
 112.542 55 l 1
 555 717.04 l 1
 104.868 1410 l 1
 -6 1456 l 0
EndSplineSet
EndChar
StartChar: Y
Encoding: 57 89 112
Width: 1179
Flags: HMW
Fore
-4 1456 m 1
 324 1456 l 1
 277.227 1400 l 1
 650 815 l 1
 1031.67 1415 l 1
 976 1456 l 1
 1204 1456 l 1
 1098.17 1415 l 1
 678 748 l 1
 678 70 l 1
 758 0 l 1
 440 0 l 1
 520 70 l 1
 520 748 l 1
 104.847 1410 l 1
 -4 1456 l 1
EndSplineSet
KernsSLIFO: 88 -190 0 0 120 -127 0 0
EndChar
StartChar: Z
Encoding: 58 90 113
Width: 1325
Flags: HMW
Fore
129 1456 m 1
 1253 1456 l 1
 319 41 l 1
 1150 41 l 1
 1225 141 l 1
 1225 0 l 1
 100 0 l 1
 1033 1415 l 1
 185 1415 l 1
 129 1315 l 1
 129 1456 l 1
EndSplineSet
EndChar
StartChar: bracketleft
Encoding: 59 91 114
Width: 626
Flags: HMW
Fore
526 -96 m 0
 131 -96 l 1
 131 1530 l 0
 526 1530 l 1
 526 1389 l 1
 281 1389 l 1
 281 43 l 1
 526 43 l 1
 526 -96 l 0
EndSplineSet
EndChar
StartChar: backslash
Encoding: 60 92 115
Width: 811
Flags: HMW
Fore
690 0 m 1
 -29 1544 l 1
 143 1544 l 0
 860 0 l 1
 690 0 l 1
EndSplineSet
KernsSLIFO: 115 -143 0 0
EndChar
StartChar: bracketright
Encoding: 61 93 116
Width: 638
Flags: HMW
Fore
129 -96 m 0
 129 45 l 1
 375 45 l 1
 375 1389 l 1
 129 1389 l 1
 129 1530 l 1
 524 1530 l 0
 524 -96 l 1
 129 -96 l 0
EndSplineSet
EndChar
StartChar: asciicircum
Encoding: 62 94 117
Width: 927
Flags: HMW
Fore
821 1149 m 1
 633 1149 l 1
 477 1362 l 1
 319 1151 l 0
 133 1151 l 1
 410 1493 l 1
 541 1493 l 1
 821 1149 l 1
EndSplineSet
EndChar
StartChar: underscore
Encoding: 63 95 118
Width: 1241
Flags: HMW
Fore
88 -231 m 1
 88 -90 l 1
 1178 -90 l 1
 1178 -231 l 1
 88 -231 l 1
EndSplineSet
EndChar
StartChar: grave
Encoding: 64 96 119
Width: 516
Flags: HMW
Fore
355 1160 m 1
 113 1447 l 1
 105 1458 100 1469 98 1480 c 0
 96.8184 1485.06 96.2636 1490.07 96.2636 1494.97 c 0
 96.2636 1519.08 109.714 1540.53 128 1553 c 0
 141 1563 157 1569 174 1569 c 0
 194 1569 215 1560 233 1537 c 1
 442 1226 l 1
 445 1220 448 1215 449 1209 c 0
 449.559 1206.06 449.825 1203.11 449.825 1200.16 c 0
 449.825 1182.06 439.762 1164.46 426 1155 c 0
 416 1147 404 1143 392 1143 c 0
 379 1143 366 1148 355 1160 c 1
EndSplineSet
EndChar
StartChar: a
Encoding: 65 97 120
Width: 993
Flags: HMW
Back
143.36 1474.56 m 29
 143.36 -53.248 l 29
430.08 1466.37 m 29
 430.08 -61.4404 l 29
286.72 -69.6318 m 29
 286.72 1458.18 l 29
 286.72 -69.6318 l 29
573.44 1470.46 m 29
 573.44 -57.3438 l 29
716.8 1466.37 m 29
 716.8 -61.4404 l 29
860.16 -49.1523 m 29
 860.16 1478.66 l 29
 860.16 -49.1523 l 29
143.36 1474.56 m 29
 143.36 -53.248 l 29
430.08 1466.37 m 29
 430.08 -61.4404 l 29
286.72 -69.6318 m 29
 286.72 1458.18 l 29
 286.72 -69.6318 l 29
573.44 1470.46 m 29
 573.44 -57.3438 l 29
716.8 1466.37 m 29
 716.8 -61.4404 l 29
860.16 -49.1523 m 29
 860.16 1478.66 l 29
 860.16 -49.1523 l 29
143.36 1474.56 m 29
 143.36 -53.248 l 29
430.08 1466.37 m 29
 430.08 -61.4404 l 29
286.72 -69.6318 m 29
 286.72 1458.18 l 29
 286.72 -69.6318 l 29
573.44 1470.46 m 29
 573.44 -57.3438 l 29
716.8 1466.37 m 29
 716.8 -61.4404 l 29
860.16 -49.1523 m 29
 860.16 1478.66 l 29
 860.16 -49.1523 l 29
143.36 1474.56 m 29
 143.36 -53.248 l 29
430.08 1466.37 m 29
 430.08 -61.4404 l 29
286.72 -69.6318 m 29
 286.72 1458.18 l 29
 286.72 -69.6318 l 29
573.44 1470.46 m 29
 573.44 -57.3438 l 29
716.8 1466.37 m 29
 716.8 -61.4404 l 29
860.16 -49.1523 m 29
 860.16 1478.66 l 29
 860.16 -49.1523 l 29
143.36 1474.56 m 29
 143.36 -53.248 l 29
430.08 1466.37 m 29
 430.08 -61.4404 l 29
286.72 -69.6318 m 29
 286.72 1458.18 l 29
 286.72 -69.6318 l 29
573.44 1470.46 m 29
 573.44 -57.3438 l 29
716.8 1466.37 m 29
 716.8 -61.4404 l 29
860.16 -49.1523 m 29
 860.16 1478.66 l 29
 860.16 -49.1523 l 29
143.36 1474.56 m 29
 143.36 -53.248 l 29
430.08 1466.37 m 29
 430.08 -61.4404 l 29
286.72 -69.6318 m 29
 286.72 1458.18 l 29
 286.72 -69.6318 l 29
573.44 1470.46 m 29
 573.44 -57.3438 l 29
716.8 1466.37 m 29
 716.8 -61.4404 l 29
860.16 -49.1523 m 29
 860.16 1478.66 l 29
 860.16 -49.1523 l 29
143.36 1474.56 m 29
 143.36 -53.248 l 29
430.08 1466.37 m 29
 430.08 -61.4404 l 29
286.72 -69.6318 m 29
 286.72 1458.18 l 29
 286.72 -69.6318 l 29
573.44 1470.46 m 29
 573.44 -57.3438 l 29
716.8 1466.37 m 29
 716.8 -61.4404 l 29
860.16 -49.1523 m 29
 860.16 1478.66 l 29
 860.16 -49.1523 l 29
143.36 1474.56 m 29
 143.36 -53.248 l 29
430.08 1466.37 m 29
 430.08 -61.4404 l 29
286.72 -69.6318 m 29
 286.72 1458.18 l 29
 286.72 -69.6318 l 29
573.44 1470.46 m 29
 573.44 -57.3438 l 29
716.8 1466.37 m 29
 716.8 -61.4404 l 29
860.16 -49.1523 m 29
 860.16 1478.66 l 29
 860.16 -49.1523 l 29
143.36 1474.56 m 29
 143.36 -53.248 l 29
430.08 1466.37 m 29
 430.08 -61.4404 l 29
286.72 -69.6318 m 29
 286.72 1458.18 l 29
 286.72 -69.6318 l 29
573.44 1470.46 m 29
 573.44 -57.3438 l 29
716.8 1466.37 m 29
 716.8 -61.4404 l 29
860.16 -49.1523 m 29
 860.16 1478.66 l 29
 860.16 -49.1523 l 29
143.36 1474.56 m 29
 143.36 -53.248 l 29
430.08 1466.37 m 29
 430.08 -61.4404 l 29
286.72 -69.6318 m 29
 286.72 1458.18 l 29
 286.72 -69.6318 l 29
573.44 1470.46 m 29
 573.44 -57.3438 l 29
716.8 1466.37 m 29
 716.8 -61.4404 l 29
860.16 -49.1523 m 29
 860.16 1478.66 l 29
 860.16 -49.1523 l 29
143.36 1474.56 m 29
 143.36 -53.248 l 29
430.08 1466.37 m 29
 430.08 -61.4404 l 29
286.72 -69.6318 m 29
 286.72 1458.18 l 29
 286.72 -69.6318 l 29
573.44 1470.46 m 29
 573.44 -57.3438 l 29
716.8 1466.37 m 29
 716.8 -61.4404 l 29
860.16 -49.1523 m 29
 860.16 1478.66 l 29
 860.16 -49.1523 l 29
143.36 1474.56 m 29
 143.36 -53.248 l 29
430.08 1466.37 m 29
 430.08 -61.4404 l 29
286.72 -69.6318 m 29
 286.72 1458.18 l 29
 286.72 -69.6318 l 29
573.44 1470.46 m 29
 573.44 -57.3438 l 29
716.8 1466.37 m 29
 716.8 -61.4404 l 29
860.16 -49.1523 m 29
 860.16 1478.66 l 29
 860.16 -49.1523 l 29
143.36 1474.56 m 29
 143.36 -53.248 l 29
430.08 1466.37 m 29
 430.08 -61.4404 l 29
286.72 -69.6318 m 29
 286.72 1458.18 l 29
 286.72 -69.6318 l 29
573.44 1470.46 m 29
 573.44 -57.3438 l 29
716.8 1466.37 m 29
 716.8 -61.4404 l 29
860.16 -49.1523 m 29
 860.16 1478.66 l 29
 860.16 -49.1523 l 29
143.36 1474.56 m 29
 143.36 -53.248 l 29
430.08 1466.37 m 29
 430.08 -61.4404 l 29
286.72 -69.6318 m 29
 286.72 1458.18 l 29
 286.72 -69.6318 l 29
573.44 1470.46 m 29
 573.44 -57.3438 l 29
716.8 1466.37 m 29
 716.8 -61.4404 l 29
860.16 -49.1523 m 29
 860.16 1478.66 l 29
 860.16 -49.1523 l 29
143.36 1474.56 m 29
 143.36 -53.248 l 29
430.08 1466.37 m 29
 430.08 -61.4404 l 29
286.72 -69.6318 m 29
 286.72 1458.18 l 29
 286.72 -69.6318 l 29
573.44 1470.46 m 29
 573.44 -57.3438 l 29
716.8 1466.37 m 29
 716.8 -61.4404 l 29
860.16 -49.1523 m 29
 860.16 1478.66 l 29
 860.16 -49.1523 l 29
143.36 1474.56 m 29
 143.36 -53.248 l 29
430.08 1466.37 m 29
 430.08 -61.4404 l 29
286.72 -69.6318 m 29
 286.72 1458.18 l 29
 286.72 -69.6318 l 29
573.44 1470.46 m 29
 573.44 -57.3438 l 29
716.8 1466.37 m 29
 716.8 -61.4404 l 29
860.16 -49.1523 m 29
 860.16 1478.66 l 29
 860.16 -49.1523 l 29
143.36 1474.56 m 25
 143.36 -53.248 l 25
430.08 1466.37 m 25
 430.08 -61.4404 l 25
286.72 -69.6318 m 25
 286.72 1458.18 l 25
 286.72 -69.6318 l 25
573.44 1470.46 m 25
 573.44 -57.3438 l 25
716.8 1466.37 m 25
 716.8 -61.4404 l 25
860.16 -49.1523 m 25
 860.16 1478.66 l 25
 860.16 -49.1523 l 25
143.36 1474.56 m 25
 143.36 -53.248 l 25
430.08 1466.37 m 25
 430.08 -61.4404 l 25
286.72 -69.6318 m 25
 286.72 1458.18 l 25
 286.72 -69.6318 l 25
573.44 1470.46 m 25
 573.44 -57.3438 l 25
716.8 1466.37 m 25
 716.8 -61.4404 l 25
860.16 -49.1523 m 25
 860.16 1478.66 l 25
 860.16 -49.1523 l 25
143.36 1474.56 m 25
 143.36 -53.248 l 25
430.08 1466.37 m 25
 430.08 -61.4404 l 25
286.72 -69.6318 m 25
 286.72 1458.18 l 25
 286.72 -69.6318 l 25
573.44 1470.46 m 25
 573.44 -57.3438 l 25
716.8 1466.37 m 25
 716.8 -61.4404 l 25
860.16 -49.1523 m 25
 860.16 1478.66 l 25
 860.16 -49.1523 l 25
143.36 1474.56 m 25
 143.36 -53.248 l 25
430.08 1466.37 m 25
 430.08 -61.4404 l 25
286.72 -69.6318 m 25
 286.72 1458.18 l 25
 286.72 -69.6318 l 25
573.44 1470.46 m 25
 573.44 -57.3438 l 25
716.8 1466.37 m 25
 716.8 -61.4404 l 25
860.16 -49.1523 m 25
 860.16 1478.66 l 25
 860.16 -49.1523 l 25
143.36 1474.56 m 25
 143.36 -53.248 l 25
430.08 1466.37 m 25
 430.08 -61.4404 l 25
286.72 -69.6318 m 25
 286.72 1458.18 l 25
 286.72 -69.6318 l 25
573.44 1470.46 m 25
 573.44 -57.3438 l 25
716.8 1466.37 m 25
 716.8 -61.4404 l 25
860.16 -49.1523 m 25
 860.16 1478.66 l 25
 860.16 -49.1523 l 25
143.36 1474.56 m 25
 143.36 -53.248 l 25
430.08 1466.37 m 25
 430.08 -61.4404 l 25
286.72 -69.6318 m 25
 286.72 1458.18 l 25
 286.72 -69.6318 l 25
573.44 1470.46 m 25
 573.44 -57.3438 l 25
716.8 1466.37 m 25
 716.8 -61.4404 l 25
860.16 -49.1523 m 25
 860.16 1478.66 l 25
 860.16 -49.1523 l 25
143.36 1474.56 m 25
 143.36 -53.248 l 25
430.08 1466.37 m 25
 430.08 -61.4404 l 25
286.72 -69.6318 m 25
 286.72 1458.18 l 25
 286.72 -69.6318 l 25
573.44 1470.46 m 25
 573.44 -57.3438 l 25
716.8 1466.37 m 25
 716.8 -61.4404 l 25
860.16 -49.1523 m 25
 860.16 1478.66 l 25
 860.16 -49.1523 l 25
143.36 1474.56 m 25
 143.36 -53.248 l 25
430.08 1466.37 m 25
 430.08 -61.4404 l 25
286.72 -69.6318 m 25
 286.72 1458.18 l 25
 286.72 -69.6318 l 25
573.44 1470.46 m 25
 573.44 -57.3438 l 25
716.8 1466.37 m 25
 716.8 -61.4404 l 25
860.16 -49.1523 m 25
 860.16 1478.66 l 25
 860.16 -49.1523 l 25
143.36 1474.56 m 25
 143.36 -53.248 l 25
430.08 1466.37 m 25
 430.08 -61.4404 l 25
286.72 -69.6318 m 25
 286.72 1458.18 l 25
 286.72 -69.6318 l 25
573.44 1470.46 m 25
 573.44 -57.3438 l 25
716.8 1466.37 m 25
 716.8 -61.4404 l 25
860.16 -49.1523 m 25
 860.16 1478.66 l 25
 860.16 -49.1523 l 25
143.36 1474.56 m 25
 143.36 -53.248 l 25
430.08 1466.37 m 25
 430.08 -61.4404 l 25
286.72 -69.6318 m 25
 286.72 1458.18 l 25
 286.72 -69.6318 l 25
573.44 1470.46 m 25
 573.44 -57.3438 l 25
716.8 1466.37 m 25
 716.8 -61.4404 l 25
860.16 -49.1523 m 25
 860.16 1478.66 l 25
 860.16 -49.1523 l 25
143.36 1474.56 m 25
 143.36 -53.248 l 25
430.08 1466.37 m 25
 430.08 -61.4404 l 25
286.72 -69.6318 m 25
 286.72 1458.18 l 25
 286.72 -69.6318 l 25
573.44 1470.46 m 25
 573.44 -57.3438 l 25
716.8 1466.37 m 25
 716.8 -61.4404 l 25
860.16 -49.1523 m 25
 860.16 1478.66 l 25
 860.16 -49.1523 l 25
143.36 1474.56 m 25
 143.36 -53.248 l 25
430.08 1466.37 m 25
 430.08 -61.4404 l 25
286.72 -69.6318 m 25
 286.72 1458.18 l 25
 286.72 -69.6318 l 25
573.44 1470.46 m 25
 573.44 -57.3438 l 25
716.8 1466.37 m 25
 716.8 -61.4404 l 25
860.16 -49.1523 m 25
 860.16 1478.66 l 25
 860.16 -49.1523 l 25
143.36 1474.56 m 25
 143.36 -53.248 l 25
430.08 1466.37 m 25
 430.08 -61.4404 l 25
286.72 -69.6318 m 25
 286.72 1458.18 l 25
 286.72 -69.6318 l 25
573.44 1470.46 m 25
 573.44 -57.3438 l 25
716.8 1466.37 m 25
 716.8 -61.4404 l 25
860.16 -49.1523 m 25
 860.16 1478.66 l 25
 860.16 -49.1523 l 25
143.36 1474.56 m 25
 143.36 -53.248 l 25
430.08 1466.37 m 25
 430.08 -61.4404 l 25
286.72 -69.6318 m 25
 286.72 1458.18 l 25
 286.72 -69.6318 l 25
573.44 1470.46 m 25
 573.44 -57.3438 l 25
716.8 1466.37 m 25
 716.8 -61.4404 l 25
860.16 -49.1523 m 25
 860.16 1478.66 l 25
 860.16 -49.1523 l 25
143.36 1474.56 m 25
 143.36 -53.248 l 25
430.08 1466.37 m 25
 430.08 -61.4404 l 25
286.72 -69.6318 m 25
 286.72 1458.18 l 25
 286.72 -69.6318 l 25
573.44 1470.46 m 25
 573.44 -57.3438 l 25
716.8 1466.37 m 25
 716.8 -61.4404 l 25
860.16 -49.1523 m 25
 860.16 1478.66 l 25
 860.16 -49.1523 l 25
143.36 1474.56 m 25
 143.36 -53.248 l 25
430.08 1466.37 m 25
 430.08 -61.4404 l 25
286.72 -69.6318 m 25
 286.72 1458.18 l 25
 286.72 -69.6318 l 25
573.44 1470.46 m 25
 573.44 -57.3438 l 25
716.8 1466.37 m 25
 716.8 -61.4404 l 25
860.16 -49.1523 m 25
 860.16 1478.66 l 25
 860.16 -49.1523 l 25
EndSplineSet
Fore
489 682 m 0
 338 682 238 473 238 344 c 0
 238 207 346 6 489 6 c 0
 616 6 727 211 727 344 c 0
 727 487 603 682 489 682 c 0
457 717 m 0
 612 717 712 610 725 559 c 1
 725 655 l 1
 725 844 637 1054 481 1054 c 4
 387 1054 301 922 256 877 c 5
 190 830 120 920 178 981 c 5
 248 1038 338 1090 481 1090 c 4
 693 1090 866 938 866 655 c 2
 866 532 l 2
 866 55 l 1
 966 0 l 1
 727 0 l 1
 727 156 l 0
 727 158 l 1
 720.987 108.897 611 -29.001 456.026 -29.001 c 0
 243.513 -29.001 84 118.345 84 344 c 0
 84 559 252 717 457 717 c 0
EndSplineSet
KernsSLIFO: 42 -123 0 0
EndChar
StartChar: b
Encoding: 66 98 121
Width: 1044
Flags: HMW
Back
281 0 m 13
 129 0 l 5
 129 1454 l 5
 281 1454 l 5
 281 892 l 21
 324 1006 428 1102 586 1102 c 4
 812 1102 956 940 956 627 c 5
 956 0 l 5
 805 0 l 4
 805 527 l 5
 805 768 760 965 546 965 c 4
 332 965 281 780 281 540 c 4
 281 0 l 13
143.36 1474.56 m 25
 143.36 -53.248 l 25
430.08 1466.37 m 25
 430.08 -61.4404 l 25
286.72 -69.6318 m 25
 286.72 1458.18 l 25
 286.72 -69.6318 l 25
573.44 1470.46 m 25
 573.44 -57.3438 l 25
716.8 1466.37 m 25
 716.8 -61.4404 l 25
860.16 -49.1523 m 25
 860.16 1478.66 l 25
 860.16 -49.1523 l 25
EndSplineSet
Fore
281 1454 m 9
 281 886 l 1
 328 996 408 1102 580 1102 c 0
 860 1102 975 828 975 539 c 0
 975 254.35 860.223 -29 578 -29 c 0
 404 -29 328 76 281 184 c 9
 281 0 l 1
 49 0 l 1
 129 50 l 1
 129 1415 l 1
 49 1454 l 1
 281 1454 l 9
821 539 m 0
 821 816 700 1066 552 1066 c 0
 404 1066 276 812 276 537 c 0
 276 264 404 6 552 6 c 4
 700 6 821 264 821 539 c 0
EndSplineSet
EndChar
StartChar: c
Encoding: 67 99 122
Width: 921
Flags: HMW
Back
1242 0 m 21
 228 537 l 5
 1242 1074 l 13
86.0156 532.48 m 0
 86.0156 843.366 286.032 1095.68 532.48 1095.68 c 0
 778.928 1095.68 978.944 843.366 978.944 532.48 c 0
 978.944 221.594 778.928 -30.7197 532.48 -30.7197 c 0
 286.032 -30.7197 86.0156 221.594 86.0156 532.48 c 0
239.616 530.432 m 0
 239.616 765.575 370.819 956.416 532.48 956.416 c 0
 694.141 956.416 825.344 765.575 825.344 530.432 c 0
 825.344 295.289 694.141 104.448 532.48 104.448 c 0
 370.819 104.448 239.616 295.289 239.616 530.432 c 0
143.36 1474.56 m 25
 143.36 -53.248 l 25
430.08 1466.37 m 25
 430.08 -61.4404 l 25
286.72 -69.6318 m 25
 286.72 1458.18 l 25
 286.72 -69.6318 l 25
573.44 1470.46 m 25
 573.44 -57.3438 l 25
716.8 1466.37 m 25
 716.8 -61.4404 l 25
860.16 -49.1523 m 25
 860.16 1478.66 l 25
 860.16 -49.1523 l 25
EndSplineSet
Fore
780 828 m 1
 716 1008 667.459 1041.36 537 1058 c 0
 371 1058 229 784 229 537 c 0
 229 272 367 6 535 6 c 0
 659 6 754 193 775 240 c 1
 817.782 265.735 884.846 266.628 876 187.18 c 1
 815.477 85.6889 700.346 -29 535 -29 c 1
 268 -29 76 225 76 537 c 0
 76 823 250 1094 537 1094 c 0
 699.36 1094 810.949 992.459 876 874.637 c 1
 921 795 825 746.04 780 828 c 1
EndSplineSet
EndChar
StartChar: d
Encoding: 68 100 123
Width: 1044
Flags: HMW
Back
761.856 1062.91 m 21
 913.408 1062.91 l 5
 913.408 -391.168 l 5
 761.856 -391.168 l 5
 761.856 163.84 l 21
 700.416 67.7812 626.688 -30.4951 481.28 -28.6719 c 5
 229.376 -28.6719 108.544 256 108.544 538.624 c 4
 108.544 821.248 225.28 1091.58 483.328 1091.58 c 5
 620.544 1091.58 706.56 995.328 761.856 894.976 c 5
 761.856 1062.91 l 21
262.144 538.624 m 4
 262.144 305.152 350.208 106.496 483.328 106.496 c 5
 622.592 106.496 765.952 278.528 765.952 536.576 c 5
 765.952 827.392 595.968 956.416 483.328 956.416 c 4
 352.256 956.416 262.144 778.24 262.144 538.624 c 4
143.36 1474.56 m 25
 143.36 -53.248 l 25
430.08 1466.37 m 25
 430.08 -61.4404 l 25
286.72 -69.6318 m 25
 286.72 1458.18 l 25
 286.72 -69.6318 l 25
573.44 1470.46 m 25
 573.44 -57.3438 l 25
716.8 1466.37 m 25
 716.8 -61.4404 l 25
860.16 -49.1523 m 25
 860.16 1478.66 l 25
 860.16 -49.1523 l 25
EndSplineSet
Fore
767 1454 m 17
 999 1454 l 1
 919 1410 l 0
 919 55 l 0
 999 0 l 1
 767 0 l 1
 767 184 l 17
 719.909 75.7918 643.63 -29.0009 468.963 -29.0009 c 0
 187.829 -29.0009 73 254.653 73 539 c 0
 73 828 188 1102 468 1102 c 0
 640 1102 720 996 767 886 c 1
 767 1454 l 17
227 539 m 0
 227 264 348 6 496 6 c 0
 644 6 772 264 772 537 c 0
 772 812 644 1066 496 1066 c 0
 348 1066 227 816 227 539 c 0
EndSplineSet
EndChar
StartChar: e
Encoding: 69 101 124
Width: 1013
Flags: HMW
Back
143.36 1474.56 m 25
 143.36 -53.248 l 25
430.08 1466.37 m 25
 430.08 -61.4404 l 25
286.72 -69.6318 m 25
 286.72 1458.18 l 25
 286.72 -69.6318 l 25
573.44 1470.46 m 25
 573.44 -57.3438 l 25
716.8 1466.37 m 25
 716.8 -61.4404 l 25
860.16 -49.1523 m 25
 860.16 1478.66 l 25
 860.16 -49.1523 l 25
EndSplineSet
Fore
257 604 m 1
 779 604 l 1
 768 784 676 1058 518 1058 c 0
 358 1058 268 774 257 604 c 1
257 569 m 1
 255 305 358 6 518 6 c 0
 612 6 769 152 812 235 c 1
 874 292 910 275 896 188 c 1
 820 80 673 -29 518 -29 c 0
 251 -29 98 223 98 537 c 0
 98 852 252.008 1091.97 518 1094 c 0
 780 1096 924 888 925 569 c 1
 257 569 l 1
EndSplineSet
KernsSLIFO: 40 -53 0 0
EndChar
StartChar: f
Encoding: 70 102 125
Width: 716
Flags: HMW
Back
143.36 1474.56 m 25
 143.36 -53.248 l 25
430.08 1466.37 m 25
 430.08 -61.4404 l 25
286.72 -69.6318 m 25
 286.72 1458.18 l 25
 286.72 -69.6318 l 25
573.44 1470.46 m 25
 573.44 -57.3438 l 25
716.8 1466.37 m 25
 716.8 -61.4404 l 25
860.16 -49.1523 m 25
 860.16 1478.66 l 25
 860.16 -49.1523 l 25
EndSplineSet
Fore
416 988 m 0
 416 70 l 1
 496 0 l 1
 184 0 l 1
 264 60 l 1
 264 988 l 0
 125 988 l 1
 225 1073 l 1
 263 1073 l 1
 263 1208 l 0
 263 1376 444 1481 545 1481 c 0
 631 1481 676 1444 723 1399 c 1
 775 1300 680 1235 614 1294 c 1
 570 1320 590 1385 620.045 1400 c 1
 603.7 1444.27 552.261 1446 514 1446 c 1
 463 1446 417 1311 417 1249 c 0
 417 1073 l 1
 662 1073 l 5
 562 988 l 5
 416 988 l 0
EndSplineSet
KernsSLIFO: 120 -80 0 0 34 -68 0 0 45 -41 0 0 40 -70 0 0 41 -82 0 0 35 -41 0 0
EndChar
StartChar: g
Encoding: 71 103 126
Width: 1021
Flags: HMW
Back
741.376 1062.91 m 21
 892.928 1062.91 l 5
 892.928 -391.168 l 5
 741.376 -391.168 l 5
 741.376 163.84 l 21
 679.936 67.7822 606.208 -30.4961 460.8 -28.6719 c 5
 208.896 -28.6719 88.0645 256 88.0645 538.624 c 4
 88.0645 821.248 204.8 1091.58 462.848 1091.58 c 5
 600.064 1091.58 686.08 995.328 741.376 894.976 c 5
 741.376 1062.91 l 21
241.664 538.624 m 4
 241.664 305.152 329.728 106.496 462.848 106.496 c 5
 602.112 106.496 745.472 278.528 745.472 536.576 c 5
 745.472 827.392 575.488 956.416 462.848 956.416 c 4
 331.776 956.416 241.664 778.24 241.664 538.624 c 4
1003.52 -49.1523 m 25
 1003.52 1478.66 l 25
 1003.52 -49.1523 l 25
143.36 1474.56 m 25
 143.36 -53.248 l 25
430.08 1466.37 m 25
 430.08 -61.4404 l 25
286.72 -69.6318 m 25
 286.72 1458.18 l 25
 286.72 -69.6318 l 25
573.44 1470.46 m 25
 573.44 -57.3438 l 25
716.8 1466.37 m 25
 716.8 -61.4404 l 25
860.16 -49.1523 m 25
 860.16 1478.66 l 25
 860.16 -49.1523 l 25
EndSplineSet
Fore
316.295 -362.899 m 4,13,14
919 82 m 1,0,1
 920 -275 695 -449 493 -449 c 4,2,3
 237 -449 175 -315 79.1543 -160.656 c 5,4,-1
 50 -75 165 -28.6719 205 -125 c 4,5,6
 280.199 -306.094 275.585 -407.188 504 -413 c 4,7,8
 628.86 -418.91 785 -250 767 67 c 0,9,-1
 767 100 l 2,10,-1
 767 184 l 17,11,12
 720 76 644 -29 470 -29 c 0,13,14
 187.831 -29 73 254.804 73 539 c 0,15,16
 73 828 188 1102 468 1102 c 0,17,18
 640 1102 720 996 767 886 c 1,19,-1
 767 1073 l 17,20,-1
 999 1073 l 1,21,-1
 919 1030 l 0,0,0
 919 100 l 1,22,-1
 919 82 l 1,0,1
227 539 m 0,23,24
 227 264 348 6 496 6 c 0,25,26
 644 6 772 264 772 537 c 0,27,28
 772 812 644 1066 496 1066 c 0,29,30
 348 1066 227 816 227 539 c 0,23,24
EndSplineSet
KernsSLIFO: 129 117 0 0
EndChar
StartChar: h
Encoding: 72 104 127
Width: 1064
Flags: HMW
Back
1003.52 -49.1523 m 25
 1003.52 1478.66 l 25
 1003.52 -49.1523 l 25
143.36 1474.56 m 25
 143.36 -53.248 l 25
430.08 1466.37 m 25
 430.08 -61.4404 l 25
286.72 -69.6318 m 25
 286.72 1458.18 l 25
 286.72 -69.6318 l 25
573.44 1470.46 m 25
 573.44 -57.3438 l 25
716.8 1466.37 m 25
 716.8 -61.4404 l 25
860.16 -49.1523 m 25
 860.16 1478.66 l 25
 860.16 -49.1523 l 25
EndSplineSet
Fore
361 0 m 9
 49 0 l 1
 129 70 l 1
 129 1415 l 1
 49 1456 l 1
 281 1456 l 1
 281 891.848 l 17
 315.977 1003.77 427.852 1101.85 585.687 1101.85 c 0
 800.157 1101.85 956 933.132 956 540.848 c 2
 956 65 l 1
 1036 0 l 1
 725 0 l 0
 805 65 l 1
 805 540.848 l 1
 805 773.848 732 1064.85 546 1064.85 c 0
 360 1064.85 281 767.848 281 539.848 c 0
 281 60 l 1
 361 0 l 9
EndSplineSet
EndChar
StartChar: i
Encoding: 73 105 128
Width: 430
Flags: HMW
Back
143.36 1474.56 m 25
 143.36 -53.248 l 25
430.08 1466.37 m 25
 430.08 -61.4404 l 25
286.72 -69.6318 m 25
 286.72 1458.18 l 25
 286.72 -69.6318 l 25
573.44 1470.46 m 25
 573.44 -57.3438 l 25
716.8 1466.37 m 25
 716.8 -61.4404 l 25
860.16 -49.1523 m 25
 860.16 1478.66 l 25
 860.16 -49.1523 l 25
EndSplineSet
Fore
131 1333 m 0
 131 1384 174 1427 225 1427 c 0
 270 1427 308 1395 317 1352 c 0
 319 1346 319 1340 319 1333 c 0
 319 1282 276 1239 225 1239 c 0
 181 1239 142 1272 133 1314 c 0
 132 1320 131 1327 131 1333 c 0
70 1073 m 1
 301 1073 l 1
 301 60 l 1
 381 0 l 1
 70 0 l 1
 150 65 l 1
 150 1030 l 1
 70 1073 l 1
EndSplineSet
EndChar
StartChar: j
Encoding: 74 106 129
Width: 468
Flags: HMW
Back
188.416 114.688 m 4
 188.416 1052.67 l 5
 339.968 1052.67 l 5
 339.968 114.688 l 4
 479.232 114.688 l 5
 479.232 -20.4805 l 5
 339.968 -20.4805 l 5
 340.851 -155.648 l 4
 340.851 -323.584 159.744 -428.032 59.3896 -428.032 c 4
 -26.624 -428.032 -71.6797 -391.168 -118.784 -346.112 c 13
 -10.2402 -241.664 l 21
 12.2881 -270.336 30.7197 -292.863 90.1143 -292.863 c 5
 141.312 -292.863 187.478 -258.048 187.478 -196.608 c 4
 188.416 -20.4805 l 5
 -8.19238 -20.4805 l 5
 -8.19238 114.688 l 5
 188.416 114.688 l 4
143.36 1474.56 m 25
 143.36 -53.248 l 25
430.08 1466.37 m 25
 430.08 -61.4404 l 25
286.72 -69.6318 m 25
 286.72 1458.18 l 25
 286.72 -69.6318 l 25
573.44 1470.46 m 25
 573.44 -57.3438 l 25
716.8 1466.37 m 25
 716.8 -61.4404 l 25
860.16 -49.1523 m 25
 860.16 1478.66 l 25
 860.16 -49.1523 l 25
EndSplineSet
Fore
170 1333 m 0
 170 1384 213 1427 264 1427 c 0
 313 1427 358 1386 358 1333 c 0
 358 1282 315 1239 264 1239 c 0
 215 1239 170 1280 170 1333 c 0
-119 -346 m 1
 -170 -250 -42 -166 6 -235 c 1
 53 -276 36.5968 -339.513 20 -370 c 1
 35.8896 -380.368 60.0898 -393 86 -393 c 5
 195 -395 188 -254 188 -170 c 0
 188 0 l 1
 188 1030 l 1
 108 1073 l 1
 340 1073 l 0
 340 60 l 1
 340 -79 l 0
 340 -385 125 -428 55 -428 c 1
 -35 -428 -80 -383 -119 -346 c 1
EndSplineSet
KernsSLIFO: 129 80 0 0
EndChar
StartChar: k
Encoding: 75 107 130
Width: 944
Flags: HMW
Back
143.36 1474.56 m 29
 143.36 -53.248 l 29
430.08 1466.37 m 29
 430.08 -61.4404 l 29
286.72 -69.6318 m 29
 286.72 1458.18 l 29
 286.72 -69.6318 l 29
573.44 1470.46 m 29
 573.44 -57.3438 l 29
716.8 1466.37 m 29
 716.8 -61.4404 l 29
860.16 -49.1523 m 29
 860.16 1478.66 l 29
 860.16 -49.1523 l 29
EndSplineSet
Fore
452 640.576 m 1
 895.097 60 l 1
 1020 0 l 1
 686 0 l 1
 728.988 50 l 1
 360 536.576 l 1
 281 429 l 1
 281 70 l 1
 361 0 l 1
 49 0 l 1
 129 60 l 1
 129 1410 l 1
 49 1454 l 1
 281 1454 l 1
 281 522 l 17
 760 1073 l 1
 914 1073 l 1
 775.138 1015 l 1
 452 640.576 l 1
EndSplineSet
EndChar
StartChar: l
Encoding: 76 108 131
Width: 430
Flags: HMW
Back
143.36 1474.56 m 29
 143.36 -53.248 l 29
430.08 1466.37 m 29
 430.08 -61.4404 l 29
286.72 -69.6318 m 29
 286.72 1458.18 l 29
 286.72 -69.6318 l 29
573.44 1470.46 m 29
 573.44 -57.3438 l 29
716.8 1466.37 m 29
 716.8 -61.4404 l 29
860.16 -49.1523 m 29
 860.16 1478.66 l 29
 860.16 -49.1523 l 29
EndSplineSet
Fore
301 147 m 1
 301 136 302 126 304 117 c 0
 315 64 330 42 390 42 c 1
 390 0 l 1
 68 0.669922 l 1
 60.332 16.3691 151.303 34.0801 147 54 c 0
 143 75 150 177 150 203 c 1
 150 1400 l 1
 70 1454 l 1
 301 1454 l 1
 301 147 l 1
EndSplineSet
EndChar
StartChar: braceleft
Encoding: 91 123 132
Width: 747
Flags: HMW
Fore
90 729 m 1
 360 815 252 1276 305 1401 c 1
 367 1526 498 1526 635 1530 c 1
 635 1395 l 1
 621 1397 606 1399 592 1399 c 0
 539 1399 467 1378 440 1339 c 1
 430 1321 428 1282 428 1237 c 0
 428 1223 428 1208 428 1192 c 0
 428 1071 403 770 303 729 c 1
 348 712 378 636 397 547 c 0
 421 437 428 307 428 238 c 0
 428 195 l 0
 428 159 429 129 434 108 c 0
 435 100 437 93 440 88 c 1
 467 49 539 29 592 29 c 0
 606 29 621 31 635 33 c 1
 635 -102 l 1
 498 -98 367 -98 305 27 c 1
 302 34 299 43 297 53 c 0
 277 147 298 341 264 499 c 0
 241 607 193 698 90 729 c 1
EndSplineSet
EndChar
StartChar: bar
Encoding: 92 124 133
Width: 368
Flags: HMW
Fore
125 0 m 17
 125 1454 l 1
 268 1454 l 1
 268 0 l 9
 125 0 l 17
EndSplineSet
EndChar
StartChar: braceright
Encoding: 93 125 134
Width: 747
Flags: HMW
Fore
678 729 m 1
 408 647 516 158 463 33 c 1
 401 -92 270 -92 133 -96 c 1
 133 39 l 1
 147 37 162 35 176 35 c 0
 229 35 301 55 328 94 c 1
 338 113 340 152 340 201 c 0
 340 244 l 0
 340 371 365 692 465 729 c 1
 417 748 387 826 368 915 c 0
 347 1015 340 1128 340 1192 c 0
 340 1208 340 1223 340 1237 c 0
 340 1269 339 1299 335 1319 c 0
 333 1327 331 1334 328 1339 c 1
 301 1378 229 1399 176 1399 c 0
 162 1399 147 1397 133 1395 c 1
 133 1530 l 1
 270 1526 401 1526 463 1401 c 1
 466 1393 469 1384 471 1373 c 0
 490 1283 471 1106 503 958 c 0
 525 853 573 763 678 729 c 1
EndSplineSet
EndChar
StartChar: asciitilde
Encoding: 94 126 135
Width: 735
Flags: HMW
Fore
63 764 m 17
 109 801 168 860 246 860 c 0
 344 860 408 709 512 709 c 1
 582 709 639 762 700 807 c 9
 700 662 l 17
 639 614 586 563 512 563 c 0
 397 563 326 715 244 715 c 0
 166 715 119 664 63 618 c 9
 63 764 l 17
EndSplineSet
EndChar
StartChar: cent
Encoding: 97 162 138
Width: 808
Flags: HMW
Fore
381 279 m 1
 242 296 125 393 90 556 c 0
 83 587 80 621 80 657 c 0
 80 872 252 963 377 993 c 1
 377 1208 l 1
 512 1208 l 1
 512 993 l 1
 592 973 657 928 711 881 c 9
 676 844 621 786 621 786 c 0
 592 815 539 866 434 866 c 1
 324 866 223 778 223 653 c 0
 223 628 226 604 230 582 c 0
 254 471 334 406 440 406 c 0
 522 406 592 438 649 512 c 9
 739 422 l 1
 698 356 614 305 516 274 c 1
 516 78 l 1
 381 78 l 1
 381 279 l 1
EndSplineSet
EndChar
StartChar: sterling
Encoding: 98 163 139
Width: 1120
Flags: HMW
Fore
311 596 m 1
 84 596 l 1
 84 731 l 1
 322 731 l 1
 322 1200 399 1466 596 1466 c 0
 739 1466 850 1376 924 1169 c 1
 780 1163 l 1
 760 1245 702 1333 596 1333 c 0
 530 1333 475 1094 475 934 c 0
 475 903 475 842 475 809 c 0
 475 782 475 758 475 731 c 1
 834 731 l 1
 834 596 l 1
 469 596 l 1
 458 444 402 253 362 135 c 1
 866 135 l 1
 899 137 934 139 983 207 c 1
 1063 92 l 1
 1016 20 934 12 854 0 c 1
 145 0 l 1
 178 131 298 380 311 596 c 1
EndSplineSet
EndChar
StartChar: currency
Encoding: 99 164 140
Width: 856
Flags: HMW
Fore
260 764 m 0
 260 751 261 738 264 726 c 0
 281 644 354 583 441 583 c 0
 541 583 621 664 621 764 c 0
 621 777 620 790 617 802 c 0
 600 884 528 945 441 945 c 0
 340 945 260 864 260 764 c 0
616 504 m 1
 565 469 504 449 438 449 c 0
 373 449 311 469 260 504 c 1
 260 375 l 1
 63 375 l 1
 63 571 l 1
 190 571 l 1
 162 608 142 651 132 698 c 0
 127 718 125 740 125 762 c 0
 125 831 147 895 184 946 c 1
 63 946 l 1
 63 1143 l 1
 260 1143 l 1
 260 1020 l 1
 311 1055 373 1075 438 1075 c 0
 504 1075 565 1055 616 1020 c 1
 616 1143 l 1
 813 1143 l 1
 813 946 l 1
 692 946 l 1
 717 912 735 872 745 828 c 0
 749 807 752 785 752 762 c 0
 752 690 727 625 686 571 c 1
 813 571 l 1
 813 375 l 1
 616 375 l 1
 616 504 l 1
EndSplineSet
EndChar
StartChar: yen
Encoding: 100 165 141
Width: 1110
Flags: HMW
Fore
471 682 m 1
 160 682 l 1
 160 817 l 1
 418 817 l 1
 74 1397 l 1
 229 1397 l 1
 553 831 l 1
 897 1397 l 1
 1053 1397 l 1
 680 817 l 1
 928 817 l 1
 928 682 l 1
 623 682 l 1
 623 467 l 1
 928 467 l 1
 928 332 l 1
 623 332 l 1
 623 0 l 1
 471 0 l 1
 471 332 l 1
 160 332 l 1
 160 467 l 1
 471 467 l 1
 471 682 l 1
EndSplineSet
EndChar
StartChar: brokenbar
Encoding: 101 166 142
Width: 305
Flags: HMW
Fore
233 645 m 17
 233 0 l 1
 90 0 l 1
 90 645 l 9
 233 645 l 17
90 788 m 17
 90 1434 l 1
 233 1434 l 1
 233 788 l 9
 90 788 l 17
EndSplineSet
EndChar
StartChar: section
Encoding: 102 167 143
Width: 686
Flags: HMW
Fore
186 958 m 1
 205 964 227 967 252 967 c 0
 432 967 615 826 658 622 c 0
 664 593 668 562 668 530 c 0
 668 307 526 104 350 104 c 0
 231 104 133 153 51 291 c 9
 201 301 l 17
 227 264 295 240 334 240 c 2
 338 240 l 2
 436 240 502 328 522 440 c 0
 522 441 522 442 522 442 c 0
 522 445 520 445 517 445 c 0
 505 445 475 432 457 432 c 0
 282 432 101 540 54 759 c 0
 47 794 43 832 43 872 c 0
 43 1090 170 1294 358 1294 c 0
 494 1294 555 1245 643 1130 c 1
 489 1114 l 0
 465 1141 408 1159 375 1159 c 2
 371 1159 l 2
 264 1159 211 1069 186 958 c 1
506 582 m 0
 506 596 504 611 501 625 c 0
 479 729 381 831 250 831 c 0
 227 831 211 827 195 817 c 1
 195 805 196 793 198 781 c 0
 221 674 342 567 451 567 c 0
 456 567 462 567 469 567 c 0
 487 567 506 569 506 582 c 0
EndSplineSet
EndChar
StartChar: dieresis
Encoding: 103 168 144
Width: 794
Flags: HMW
Fore
547 838 m 0
 547 889 590 932 641 932 c 0
 686 932 724 899 733 857 c 0
 735 850 735 844 735 838 c 0
 735 786 692 743 641 743 c 0
 596 743 558 776 549 819 c 0
 548 825 547 831 547 838 c 0
76 836 m 0
 76 887 119 930 170 930 c 0
 215 930 253 897 262 855 c 0
 264 848 264 842 264 836 c 0
 264 784 221 741 170 741 c 0
 125 741 87 774 78 817 c 0
 76 823 76 829 76 836 c 0
EndSplineSet
EndChar
StartChar: copyright
Encoding: 104 169 145
Width: 942
Flags: HMW
Fore
629 610 m 17
 592 573 537 543 479 543 c 0
 380 543 297 612 277 706 c 0
 274 720 272 735 272 750 c 0
 272 864 365 956 479 956 c 0
 537 956 592 934 629 897 c 9
 551 815 l 17
 532 831 506 844 479 844 c 0
 428 844 385 801 385 750 c 0
 385 743 386 737 387 731 c 0
 396 688 435 655 479 655 c 0
 506 655 537 666 555 682 c 9
 629 610 l 17
158 750 m 0
 158 726 160 704 165 682 c 0
 196 536 324 426 479 426 c 0
 657 426 801 571 801 750 c 0
 801 773 798 796 794 818 c 0
 763 963 634 1073 479 1073 c 0
 301 1073 158 928 158 750 c 0
41 750 m 0
 41 991 238 1188 479 1188 c 0
 690 1188 866 1039 908 841 c 0
 914 811 918 781 918 750 c 0
 918 508 721 311 479 311 c 0
 269 311 93 460 51 658 c 0
 44 688 41 718 41 750 c 0
EndSplineSet
EndChar
StartChar: guillemotleft
Encoding: 106 171 146
Width: 872
Flags: HMW
Fore
653 1118 m 1
 788 1118 l 1
 596 827 l 1
 788 537 l 1
 653 537 l 1
 461 827 l 1
 653 1118 l 1
252 1118 m 1
 387 1118 l 1
 195 827 l 1
 387 537 l 1
 252 537 l 1
 59 827 l 1
 252 1118 l 1
EndSplineSet
EndChar
StartChar: logicalnot
Encoding: 107 172 147
Width: 1026
Flags: HMW
Fore
920 545 m 1
 784 545 l 1
 784 750 l 0
 154 750 l 1
 154 893 l 1
 920 893 l 1
 920 545 l 1
EndSplineSet
EndChar
StartChar: registered
Encoding: 109 174 149
Width: 1189
Flags: HMW
Fore
211 750 m 0
 211 716 214 685 220 656 c 0
 264 451 450 358 602 358 c 0
 780 358 995 500 995 750 c 0
 995 780 992 809 986 836 c 0
 942 1046 738 1143 602 1143 c 0
 424 1143 211 1016 211 750 c 0
94 750 m 0
 94 1102 379 1260 602 1260 c 0
 842 1260 1050 1097 1101 861 c 0
 1108 825 1112 788 1112 750 c 0
 1112 446 858 242 602 242 c 0
 396 242 161 374 106 632 c 0
 98 669 94 708 94 750 c 0
508 801 m 1
 524 801 541 801 559 801 c 0
 637 801 713 807 713 866 c 1
 713 870 712 874 712 877 c 0
 701 928 613 932 537 932 c 0
 526 932 516 932 508 932 c 1
 508 801 l 1
426 1010 m 0
 508 1010 l 1
 646 1010 771 978 790 890 c 0
 792 883 793 875 793 866 c 0
 793 766 719 750 653 735 c 1
 815 496 l 1
 715 496 l 1
 573 723 l 1
 508 721 l 1
 508 496 l 1
 426 496 l 1
 426 1010 l 0
EndSplineSet
EndChar
StartChar: macron
Encoding: 110 175 150
Width: 706
Flags: HMW
Fore
63 1130 m 1
 668 1130 l 1
 668 995 l 1
 63 995 l 1
 63 1130 l 1
EndSplineSet
EndChar
StartChar: degree
Encoding: 111 176 151
Width: 598
Flags: HMW
Fore
167 1178 m 0
 167 1166 168 1155 170 1144 c 0
 184 1077 241 1028 311 1028 c 0
 392 1028 455 1094 455 1178 c 0
 455 1189 454 1200 452 1211 c 0
 438 1278 381 1328 311 1328 c 0
 230 1328 167 1261 167 1178 c 0
49 1174 m 0
 49 1317 166 1432 311 1432 c 0
 438 1432 543 1344 568 1227 c 0
 572 1210 573 1192 573 1174 c 0
 573 1030 457 915 311 915 c 0
 185 915 80 1003 55 1120 c 0
 51 1137 49 1155 49 1174 c 0
EndSplineSet
EndChar
StartChar: acute
Encoding: 115 180 153
Width: 550
Flags: HMW
Fore
105 1232 m 1
 311 1546 l 1
 328 1569 350 1579 371 1579 c 0
 388 1579 404 1573 417 1562 c 0
 431 1552 442 1536 446 1518 c 0
 446.957 1513.69 447.456 1509.21 447.456 1504.61 c 0
 447.456 1489.95 442.411 1473.98 431 1458 c 1
 193 1168 l 1
 183 1156 169 1151 156 1151 c 0
 143 1151 130 1155 120 1162 c 0
 110 1170 101 1182 98 1196 c 0
 97.4384 1199.09 97.1134 1202.26 97.1134 1205.5 c 0
 97.1134 1213.82 99.2462 1222.65 105 1232 c 1
EndSplineSet
EndChar
StartChar: mu
Encoding: 116 181 154
Width: 1003
Flags: HMW
Fore
297 74 m 1
 297 -395 l 1
 154 -395 l 1
 154 872 l 1
 299 872 l 0
 299 414 l 0
 299 363 303 319 311 282 c 0
 337 159 404 111 496 111 c 1
 655 111 727 291 727 414 c 0
 727 872 l 9
 870 872 l 1
 870 0 l 1
 727 0 l 1
 727 98 l 17
 668 25 586 -27 506 -27 c 0
 383 -27 342 29 297 74 c 1
EndSplineSet
EndChar
StartChar: paragraph
Encoding: 117 182 155
Width: 1150
Flags: HMW
Fore
645 1260 m 1
 645 748 l 1
 680 748 825 739 862 739 c 1
 862 1272 l 1
 827 1272 682 1260 645 1260 c 1
502 1227 m 1
 395 1192 264 1135 264 995 c 1
 264 977 266 961 269 946 c 0
 293 831 404 799 502 774 c 1
 502 1227 l 1
645 135 m 1
 862 135 l 1
 862 612 l 1
 825 612 682 623 645 623 c 1
 645 135 l 1
502 0 m 1
 502 643 l 1
 313 684 165 745 129 912 c 0
 124 938 121 965 121 995 c 0
 121 1266 457 1397 817 1397 c 1
 1014 1397 l 0
 1014 0 l 1
 502 0 l 1
EndSplineSet
EndChar
StartChar: cedilla
Encoding: 119 184 157
Width: 473
Flags: HMW
Fore
117 -190 m 1
 147 -168 211 -123 211 -86 c 0
 211 -81 210 -76 209 -71 c 0
 204 -45 183 -21 156 18 c 0
 285 74 l 0
 320 40 353 -6 365 -60 c 0
 367 -72 369 -85 369 -98 c 0
 369 -209 229 -270 160 -315 c 1
 117 -190 l 1
EndSplineSet
EndChar
StartChar: guillemotright
Encoding: 122 187 158
Width: 933
Flags: HMW
Fore
233 1118 m 1
 426 827 l 1
 233 537 l 1
 98 537 l 1
 291 827 l 1
 98 1118 l 1
 233 1118 l 1
635 1118 m 1
 827 827 l 1
 635 537 l 1
 500 537 l 1
 692 827 l 1
 500 1118 l 1
 635 1118 l 1
EndSplineSet
EndChar
StartChar: AE
Encoding: 133 198 166
Width: 1388
Flags: HMW
Fore
785 645 m 1
 521 645 l 0
 262 0 l 0
 83 0 l 1
 674 1456 l 1
 1383 1456 l 1
 1383 1307 l 0
 941 1307 l 0
 941 788 l 1
 1383 788 l 1
 1383 641 l 0
 941 641 l 0
 941 147 l 0
 1383 147 l 1
 1383 0 l 1
 785 0 l 1
 785 645 l 1
783 1237 m 1
 783 1311 l 1
 581 788 l 1
 785 788 l 1
 783 1237 l 1
EndSplineSet
EndChar
StartChar: Eth
Encoding: 143 208 176
Width: 3969
Flags: HMW
Fore
326 662 m 1
 144 662 l 1
 144 803 l 1
 326 803 l 1
 326 1456 l 1
 707 1456 l 1
 1010 1456 1226 1235 1291 928 c 0
 1304 864 1311 796 1311 726 c 1
 1311 319 1067 0 707 0 c 0
 481 0 l 1
 326 0 l 1
 326 662 l 1
483 662 m 1
 483 143 l 1
 707 143 l 1
 964 143 1154 379 1154 726 c 1
 1154 789 1148 848 1136 903 c 0
 1083 1152 918 1312 707 1312 c 1
 483 1312 l 1
 483 803 l 1
 783 803 l 1
 783 662 l 1
 483 662 l 1
EndSplineSet
EndChar
StartChar: figuredash
Encoding: 191 8210 186
Width: 1087
Flags: HMW
Fore
170 676 m 1
 938 676 l 1
 938 541 l 1
 170 541 l 1
 170 676 l 1
EndSplineSet
EndChar
StartChar: endash
Encoding: 192 8211 187
Width: 1001
Flags: HMW
Fore
170 676 m 1
 856 676 l 1
 856 541 l 1
 170 541 l 1
 170 676 l 1
EndSplineSet
EndChar
StartChar: emdash
Encoding: 193 8212 188
Width: 1290
Flags: HMW
Fore
150 676 m 1
 1159 676 l 1
 1159 541 l 1
 150 541 l 1
 150 676 l 1
EndSplineSet
EndChar
